<svg width="83" height="18" viewBox="0 0 83 18" fill="none" xmlns="http://www.w3.org/2000/svg">
<path d="M36.176 15H37.926V10.59H41.384V9.036H37.926V6.264H42.7V4.64H36.176V15ZM44.3818 15H46.1458V4.64H44.3818V15ZM48.6037 15H55.1277V13.404H50.3537V4.64H48.6037V15ZM59.0915 15H60.8415V6.264H64.0335V4.64H55.8995V6.264H59.0915V15ZM65.5842 15H72.5562V13.404H67.3342V10.394H70.9602V8.84H67.3342V6.264H72.2762V4.64H65.5842V15ZM74.2795 15H76.0015V10.912H77.8215L80.1455 15H82.0215L79.5855 10.688C81.0275 10.338 81.8815 9.4 81.8815 7.748C81.8815 5.634 80.4535 4.64 77.9895 4.64H74.2795V15ZM76.0015 9.386V6.236H77.9055C79.3895 6.236 80.1595 6.6 80.1595 7.79C80.1595 9.022 79.3755 9.386 77.9195 9.386H76.0015Z" fill="#79828B"/>
<path d="M0.435638 2.86579H11.1523C11.3484 3.96434 12.2414 4.77632 13.2869 4.77632C14.3325 4.77632 15.2255 3.96434 15.4216 2.86579H17.4255C17.6651 2.86579 17.8611 2.65086 17.8611 2.38816C17.8611 2.12546 17.6651 1.91053 17.4255 1.91053H15.4216C15.2255 0.811974 14.3325 0 13.2869 0C12.2414 0 11.3484 0.811974 11.1523 1.91053H0.435638C0.196037 1.91053 0 2.12546 0 2.38816C0 2.65086 0.196037 2.86579 0.435638 2.86579ZM13.2869 0.955263C14.0057 0.955263 14.5939 1.60007 14.5939 2.38816C14.5939 3.17625 14.0057 3.82105 13.2869 3.82105C12.5681 3.82105 11.98 3.17625 11.98 2.38816C11.98 1.60007 12.5681 0.955263 13.2869 0.955263ZM17.4255 8.35855H6.70882C6.51278 7.26 5.61972 6.44803 4.57419 6.44803C3.52866 6.44803 2.63561 7.26 2.43957 8.35855H0.435638C0.196037 8.35855 0 8.57349 0 8.83619C0 9.09888 0.196037 9.31382 0.435638 9.31382H2.43957C2.63561 10.4124 3.52866 11.2243 4.57419 11.2243C5.61972 11.2243 6.51278 10.4124 6.70882 9.31382H17.4255C17.6651 9.31382 17.8611 9.09888 17.8611 8.83619C17.8611 8.57349 17.6651 8.35855 17.4255 8.35855ZM4.57419 10.2691C3.85539 10.2691 3.26728 9.62428 3.26728 8.83619C3.26728 8.04809 3.85539 7.40329 4.57419 7.40329C5.293 7.40329 5.88111 8.04809 5.88111 8.83619C5.88111 9.62428 5.293 10.2691 4.57419 10.2691ZM17.4255 14.8066H11.0652C10.8692 13.708 9.9761 12.8961 8.93057 12.8961C7.88504 12.8961 6.99198 13.708 6.79595 14.8066H0.435638C0.196037 14.8066 0 15.0215 0 15.2842C0 15.5469 0.196037 15.7618 0.435638 15.7618H6.79595C6.99198 16.8604 7.88504 17.6724 8.93057 17.6724C9.9761 17.6724 10.8692 16.8604 11.0652 15.7618H17.4255C17.6651 15.7618 17.8611 15.5469 17.8611 15.2842C17.8611 15.0215 17.6651 14.8066 17.4255 14.8066ZM8.93057 16.7171C8.21177 16.7171 7.62366 16.0723 7.62366 15.2842C7.62366 14.4961 8.21177 13.8513 8.93057 13.8513C9.64937 13.8513 10.2375 14.4961 10.2375 15.2842C10.2375 16.0723 9.64937 16.7171 8.93057 16.7171Z" fill="#79828B"/>
</svg>
