<svg width="13" height="11" viewBox="0 0 13 11" fill="none" xmlns="http://www.w3.org/2000/svg">
<path d="M5.48398 11L0.393844 7.21489C0.183545 7.05855 0.0452096 6.82671 0.00926977 6.57038C-0.00852582 6.44346 -0.00064709 6.31434 0.0324562 6.1904C0.0655596 6.06647 0.123239 5.95013 0.202202 5.84805C0.281164 5.74597 0.379864 5.66013 0.492664 5.59544C0.605465 5.53075 0.730157 5.48848 0.859623 5.47103C1.12109 5.4358 1.38613 5.50383 1.59642 5.66017L5.00146 8.19268L10.2744 0.438605C10.3466 0.331293 10.4396 0.239018 10.5483 0.167083C10.6569 0.0951489 10.779 0.0449733 10.9075 0.0194406C11.0359 -0.00609211 11.1683 -0.00647803 11.2969 0.0183044C11.4256 0.0430868 11.548 0.0925491 11.657 0.163848C11.7661 0.235148 11.8597 0.326877 11.9325 0.433766C12.0053 0.540655 12.0559 0.660594 12.0812 0.78669C12.1066 0.912786 12.1063 1.04255 12.0803 1.16853C12.0543 1.29451 12.0032 1.41421 11.9299 1.52076L5.48398 11Z" fill="#048327"/>
</svg>
