<svg width="78" height="77" viewBox="0 0 78 77" fill="none" xmlns="http://www.w3.org/2000/svg">
<ellipse cx="39" cy="38.1702" rx="39" ry="38.1702" fill="#A8B6C8" fill-opacity="0.19568"/>
<path d="M45.6837 36.1754C44.9831 34.5991 42.6187 29.4324 40.0791 23.9155C37.452 18.2234 34.387 11.7432 33.8616 10.4296C33.774 10.1669 33.5113 9.90419 33.2486 9.72905C32.9859 9.64148 32.6356 9.55391 32.3729 9.72905C32.1102 9.81662 31.8475 10.0793 31.6723 10.342C31.4972 10.6048 31.4972 10.955 31.6723 11.3053C32.1978 12.7065 35.0876 18.924 37.8899 24.9663C40.3418 30.133 42.7938 35.5624 43.4944 37.1387C44.0198 38.4522 44.0198 40.1161 43.4068 41.2545C42.969 42.0426 42.2684 42.4805 41.3927 42.6556C40.6921 42.7432 39.9916 42.6556 39.0283 42.568C34.0368 41.9551 27.5565 41.7799 21.8644 45.02C21.6017 45.1952 21.4266 45.4579 21.339 45.7206C21.2514 45.9833 21.339 46.3336 21.4266 46.5963C21.6017 46.9466 22.0396 47.2093 22.4774 47.2093C22.6526 47.2093 22.9153 47.1217 23.0904 47.0342C28.2571 44.0567 34.2119 44.3195 38.7656 44.8449C39.6413 44.9325 40.6921 45.1076 41.743 44.9325C43.4068 44.6697 44.6328 43.794 45.5085 42.3053C46.4718 40.5539 46.5594 38.1895 45.6837 36.1754Z" fill="#333333"/>
<path d="M29.6586 40.9918C30.8846 40.7291 31.9354 40.4664 32.8987 40.0285C33.249 39.8534 33.6869 39.7658 34.0371 39.5907L34.7377 39.328C35.5258 39.0653 36.4891 38.8025 37.3648 38.9777C37.7151 39.0653 37.9778 39.2404 38.153 39.5031C38.3281 39.7658 38.3281 40.0285 38.3281 40.1161C38.3281 40.2037 38.153 40.2912 37.9778 40.3788C37.8902 40.4664 37.6275 40.554 37.6275 40.8167C37.6275 41.2545 38.3281 41.3421 38.4157 41.3421C38.5908 41.3421 38.8535 41.2545 39.0287 41.167C39.2914 40.9918 39.5541 40.7291 39.7292 40.3788C39.8168 40.2037 39.9044 40.0285 39.9044 39.8534C39.9919 39.6783 39.9919 39.5031 39.9919 39.328C39.9919 38.9777 39.9044 38.6274 39.8168 38.2771C39.5541 37.5766 38.9411 37.1387 38.3281 36.876C37.8027 36.7008 37.1021 36.6133 36.4015 36.7009C35.7886 36.7884 35.3507 36.876 34.8253 37.0511L33.9496 37.3138C33.7744 37.4014 33.5993 37.4014 33.4241 37.489C32.8111 37.6641 32.1982 38.0144 31.4976 38.3647C29.3959 39.4155 27.0315 40.554 25.6304 38.5398C25.2801 38.0144 25.0174 37.3138 24.9298 36.5257C24.7546 35.037 25.1925 33.5483 25.9806 32.3223C25.9806 32.2347 26.1558 32.0596 26.0682 31.7969L25.9806 31.6218L25.8055 31.5342C25.7179 31.5342 25.5428 31.5342 25.3676 31.6218C24.5795 32.3223 23.9665 33.2856 23.6162 34.5992C23.2659 35.9127 23.2659 37.1387 23.6162 38.1895C24.3168 40.7291 26.5061 41.6924 29.6586 40.9918Z" fill="#333333"/>
<path d="M31.847 26.4548C31.847 26.2797 31.6719 26.1921 31.4967 26.1921C31.3216 26.1921 31.0589 26.2797 30.8837 26.1921C30.7086 26.1921 30.4459 26.1046 30.2707 26.1046C30.008 26.017 29.8329 26.017 29.5702 25.8419C29.5702 25.6667 29.6577 25.4916 29.6577 25.3164C29.7453 25.2289 29.8329 25.1413 29.9204 25.1413C30.2707 24.9661 30.7086 24.791 31.234 24.8786C31.4091 24.9661 31.5843 24.7034 31.4967 24.5283C31.4091 24.3531 31.234 24.2656 31.0589 24.4407C30.7961 24.6159 30.5334 24.7034 30.2707 24.7034C30.0956 24.7034 29.9204 24.7034 29.8329 24.7034H29.7453C29.7453 24.5283 29.6577 24.3531 29.6577 24.2656C29.8329 24.178 29.9204 24.0904 30.0956 24.0029C30.1832 24.0029 30.3583 23.9153 30.5334 23.9153C30.621 23.9153 30.7961 23.9153 30.8837 23.9153C30.9713 23.9153 31.0589 23.9153 31.1464 23.8277C31.234 23.7402 31.234 23.565 31.1464 23.4774V23.3899C31.0589 23.3023 30.9713 23.1272 30.8837 23.1272C30.7961 23.1272 30.7086 23.2147 30.7086 23.3023C30.621 23.3899 30.5334 23.4774 30.4459 23.565C30.2707 23.7402 29.9204 24.0029 29.5702 24.0029C29.4826 23.8277 29.3074 23.565 29.1323 23.3899C29.1323 23.3899 29.1323 23.3023 29.2199 23.3023C29.3074 23.0396 29.4826 22.7769 29.6577 22.6017C29.7453 22.5142 29.9204 22.339 30.008 22.2515C30.0956 22.1639 30.5334 22.0763 30.4459 21.8136C30.3583 21.6385 30.1832 21.4633 30.008 21.5509C29.9204 21.6385 29.8329 21.8136 29.7453 21.9012C29.6577 22.0763 29.4826 22.2515 29.3074 22.4266C29.1323 22.6017 28.8696 22.7769 28.6069 22.8644C28.3442 22.6893 28.0815 22.5142 27.8187 22.4266C27.8187 22.339 27.8187 22.2515 27.8187 22.1639C27.8187 21.9012 27.9063 21.726 28.0815 21.5509C28.3442 21.3757 27.9939 21.113 27.8187 21.2006C27.6436 21.2006 27.7312 21.5509 27.7312 21.6385C27.7312 21.9012 27.6436 22.0763 27.4685 22.2515C27.3809 22.339 27.2057 22.339 27.1182 22.1639C27.0306 21.8136 27.0306 21.3757 27.0306 21.113C27.0306 20.9379 27.1182 20.6752 27.1182 20.5C27.2057 20.4125 27.2057 20.2373 27.2057 20.1498C27.2057 20.0622 27.1182 20.0622 27.1182 20.0622C26.943 19.9746 26.7679 20.0622 26.6803 20.2373C26.6803 20.3249 26.6803 20.5 26.6803 20.5876C26.7679 20.8503 26.6803 21.2006 26.6803 21.5509C26.5928 21.8136 26.5928 22.2515 26.33 22.4266C26.2425 22.4266 26.1549 22.4266 26.0673 22.5142C25.5419 22.5142 25.2792 21.5509 25.3668 21.113C25.3668 21.0255 25.2792 20.8503 25.2792 20.8503C25.1916 20.8503 25.0165 20.8503 24.9289 20.9379C24.9289 20.9379 24.9289 21.113 24.9289 21.2006C25.4543 21.8136 25.4543 22.8644 24.5786 23.0396C24.3159 23.1272 23.9656 23.0396 23.7029 22.8644C23.6154 22.7769 23.4402 22.6893 23.3526 22.6017C23.2651 22.5142 23.0899 22.1639 22.9148 22.339C22.5645 22.5142 22.8272 22.7769 23.0899 22.8644C23.2651 22.8644 23.4402 22.952 23.5278 23.0396C23.7905 23.2147 24.0532 23.4774 24.2283 23.6526C24.2283 23.6526 24.3159 23.7402 24.3159 23.8277C24.3159 23.8277 24.3159 23.9153 24.2283 23.9153C24.2283 23.9153 24.1408 23.9153 24.0532 23.9153C23.7029 23.9153 23.4402 23.8277 23.1775 23.8277C23.0024 23.8277 22.7396 23.7402 22.6521 23.6526C22.4769 23.565 22.3018 23.3023 22.1267 23.3899C21.9515 23.3899 21.7764 23.6526 21.7764 23.8277C21.7764 24.0029 21.8639 24.0904 22.1267 24.0904C22.3018 24.0904 22.5645 24.0904 22.7396 24.0904C22.9148 24.0904 23.1775 24.178 23.3526 24.2656C23.6154 24.3531 23.7905 24.4407 24.0532 24.6159C24.0532 24.791 23.9656 24.8786 23.9656 25.0537C23.8781 25.1413 23.7029 25.2289 23.6154 25.3164C23.1775 25.4916 22.7396 25.6667 22.3018 25.4916C22.1267 25.404 21.9515 25.6667 22.0391 25.8419C22.1267 26.017 22.3018 26.1046 22.4769 25.9294C22.7396 25.7543 23.0024 25.6667 23.3526 25.6667C23.5278 25.6667 23.7029 25.6667 23.7905 25.6667C23.8781 25.6667 23.8781 25.6667 23.9656 25.6667C23.9656 25.8418 24.0532 25.9294 24.0532 26.1046C23.8781 26.1921 23.7029 26.2797 23.5278 26.3673C23.3526 26.3673 23.2651 26.4548 23.0899 26.4548C23.0024 26.4548 22.8272 26.4548 22.7396 26.4548C22.6521 26.4548 22.5645 26.4548 22.4769 26.5424C22.3894 26.63 22.3894 26.8051 22.4769 26.8927V26.9803C22.5645 27.0678 22.6521 27.243 22.7396 27.243C22.8272 27.243 22.9148 27.1554 22.9148 27.0678C23.0024 26.9803 23.0899 26.8927 23.1775 26.8927C23.3526 26.7176 23.7905 26.4548 24.1408 26.4548C24.2283 26.63 24.3159 26.8051 24.4911 26.9803C24.4911 27.0678 24.4035 27.0678 24.4035 27.1554C24.2283 27.4181 24.1408 27.6808 23.9656 27.856C23.8781 27.9435 23.7029 28.1187 23.6154 28.1187C23.5278 28.2063 23.0024 28.2938 23.1775 28.5565C23.2651 28.7317 23.4402 28.9068 23.6154 28.8193C23.7029 28.7317 23.7905 28.5565 23.8781 28.469C23.9656 28.2938 24.1408 28.1187 24.3159 27.9435C24.4911 27.7684 24.7538 27.5933 25.0165 27.5057C25.2792 27.6808 25.4543 27.856 25.8046 27.9435C25.8046 28.0311 25.8046 28.1187 25.8046 28.2063C25.8046 28.469 25.717 28.6441 25.4543 28.8193C25.1916 28.9944 25.5419 29.2571 25.717 29.1695C25.8922 29.1695 25.8922 28.8193 25.8922 28.7317C25.8922 28.469 25.9798 28.2938 26.1549 28.1187C26.2425 28.0311 26.4176 28.0311 26.5052 28.2063C26.5928 28.5565 26.5928 28.9944 26.5052 29.2571C26.5052 29.4322 26.4176 29.695 26.33 29.8701C26.2425 29.9577 26.1549 30.1328 26.2425 30.2204C26.2425 30.308 26.33 30.308 26.33 30.308C26.5052 30.3955 26.6803 30.308 26.7679 30.1328C26.7679 30.0452 26.7679 29.8701 26.7679 29.7825C26.6803 29.5198 26.7679 29.1695 26.8555 28.8193C26.943 28.5565 26.943 28.1187 27.2057 27.9435C27.2933 27.9435 27.3809 27.9435 27.4685 27.856C27.9939 27.9435 28.169 28.8193 28.0815 29.2571C28.0815 29.3447 28.169 29.5198 28.169 29.5198C28.2566 29.5198 28.4317 29.5198 28.5193 29.4322C28.6069 29.4322 28.6069 29.2571 28.5193 29.1695C28.2566 28.8193 28.169 28.469 28.2566 28.0311C28.2566 27.856 28.3442 27.6808 28.3442 27.5933C28.6069 27.0678 29.395 26.9803 30.008 27.243C30.0956 27.3306 30.2707 27.4181 30.3583 27.5057C30.4459 27.5933 30.621 27.9435 30.7961 27.7684C31.1464 27.5933 30.8837 27.3306 30.621 27.243C30.4459 27.243 30.2707 27.1554 30.1832 27.0678C29.9204 26.8927 29.6577 26.63 29.395 26.4548V26.3673C29.395 26.2797 29.4826 26.1921 29.4826 26.1046H29.5702C29.9204 26.1046 30.1832 26.1046 30.4459 26.1921C30.621 26.1921 30.8837 26.2797 30.9713 26.3673C31.1464 26.4548 31.3216 26.63 31.4967 26.63C31.6719 26.8927 31.847 26.63 31.847 26.4548Z" fill="#333333"/>
<path d="M57.5052 33.1978C57.5052 33.0226 57.3301 32.9351 57.1549 32.9351C56.9798 32.9351 56.7171 33.0226 56.5419 32.9351C56.3668 32.9351 56.1041 32.8475 55.9289 32.8475C55.6662 32.7599 55.4911 32.7599 55.2284 32.5848C55.2284 32.4096 55.3159 32.2345 55.3159 32.0593C55.4035 31.9718 55.4911 31.8842 55.5786 31.8842C55.9289 31.7091 56.3668 31.5339 56.8922 31.6215C57.0673 31.7091 57.2425 31.4464 57.1549 31.2712C57.0673 31.0961 56.8922 31.0085 56.7171 31.1836C56.4543 31.3588 56.1916 31.4464 55.9289 31.4464C55.7538 31.4464 55.5786 31.4464 55.4911 31.4464H55.4035C55.4035 31.2712 55.3159 31.0961 55.3159 31.0085C55.4911 30.9209 55.5786 30.8334 55.7538 30.7458C55.8414 30.7458 56.0165 30.6582 56.1916 30.6582C56.2792 30.6582 56.4543 30.6582 56.5419 30.6582C56.6295 30.6582 56.7171 30.6582 56.8046 30.5706C56.8922 30.4831 56.8922 30.3079 56.8046 30.2204V30.1328C56.7171 30.0452 56.6295 29.8701 56.5419 29.8701C56.4543 29.8701 56.3668 29.9576 56.3668 30.0452C56.2792 30.1328 56.1916 30.2204 56.1041 30.3079C55.9289 30.4831 55.5786 30.7458 55.2284 30.7458C55.1408 30.5706 54.9656 30.3079 54.7905 30.1328C54.7905 30.1328 54.7905 30.0452 54.8781 30.0452C54.9656 29.7825 55.1408 29.5198 55.3159 29.3447C55.4035 29.2571 55.5786 29.0819 55.6662 28.9944C55.7538 28.9068 56.1916 28.8192 56.1041 28.5565C56.0165 28.3814 55.8414 28.2062 55.6662 28.2938C55.5786 28.3814 55.4911 28.5565 55.4035 28.6441C55.3159 28.8192 55.1408 28.9944 54.9656 29.1695C54.7905 29.3447 54.5278 29.5198 54.2651 29.6074C54.0024 29.4322 53.7397 29.2571 53.4769 29.1695C53.4769 29.0819 53.4769 28.9944 53.4769 28.9068C53.4769 28.6441 53.5645 28.4689 53.7397 28.2938C54.0024 28.1187 53.6521 27.856 53.4769 27.9435C53.3018 27.9435 53.3894 28.2938 53.3894 28.3814C53.3894 28.6441 53.3018 28.8192 53.1267 28.9944C53.0391 29.0819 52.864 29.0819 52.7764 28.9068C52.6888 28.5565 52.6888 28.1187 52.6888 27.856C52.6888 27.6808 52.7764 27.4181 52.7764 27.243C52.864 27.1554 52.864 26.9802 52.864 26.8927C52.864 26.8051 52.7764 26.8051 52.7764 26.8051C52.6012 26.7175 52.4261 26.8051 52.3385 26.9802C52.3385 27.0678 52.3385 27.243 52.3385 27.3305C52.4261 27.5932 52.3385 27.9435 52.3385 28.2938C52.251 28.5565 52.251 28.9944 51.9882 29.1695C51.9007 29.1695 51.8131 29.1695 51.7255 29.2571C51.2001 29.2571 50.9374 28.2938 51.025 27.856C51.025 27.7684 50.9374 27.5932 50.9374 27.5932C50.8498 27.5932 50.6747 27.5932 50.5871 27.6808C50.5871 27.6808 50.5871 27.856 50.5871 27.9435C51.1125 28.5565 51.1125 29.6074 50.2368 29.7825C49.9741 29.8701 49.6238 29.7825 49.3611 29.6074C49.2736 29.5198 49.0984 29.4322 49.0108 29.3447C48.9233 29.2571 48.7481 28.9068 48.573 29.0819C48.2227 29.2571 48.4854 29.5198 48.7481 29.6074C48.9233 29.6074 49.0984 29.6949 49.186 29.7825C49.4487 29.9577 49.7114 30.2204 49.8865 30.3955C49.8865 30.3955 49.9741 30.4831 49.9741 30.5706C49.9741 30.5706 49.9741 30.6582 49.8865 30.6582C49.8865 30.6582 49.799 30.6582 49.7114 30.6582C49.3611 30.6582 49.0984 30.5706 48.8357 30.5706C48.6606 30.5706 48.3978 30.4831 48.3103 30.3955C48.1351 30.3079 47.96 30.0452 47.7849 30.1328C47.6097 30.1328 47.4346 30.3955 47.4346 30.5706C47.4346 30.7458 47.5221 30.8334 47.7849 30.8334C47.96 30.8334 48.2227 30.8334 48.3978 30.8334C48.573 30.8334 48.8357 30.9209 49.0108 31.0085C49.2736 31.0961 49.4487 31.1836 49.7114 31.3588C49.7114 31.5339 49.6238 31.6215 49.6238 31.7966C49.5363 31.8842 49.3611 31.9718 49.2736 32.0593C48.8357 32.2345 48.3978 32.4096 47.96 32.2345C47.7849 32.1469 47.6097 32.4096 47.6973 32.5848C47.7849 32.7599 47.96 32.8475 48.1351 32.6723C48.3978 32.4972 48.6606 32.4096 49.0108 32.4096C49.186 32.4096 49.3611 32.4096 49.4487 32.4096C49.5363 32.4096 49.5363 32.4096 49.6238 32.4096C49.6238 32.5848 49.7114 32.6723 49.7114 32.8475C49.5363 32.9351 49.3611 33.0226 49.186 33.1102C49.0108 33.1102 48.9233 33.1978 48.7481 33.1978C48.6606 33.1978 48.4854 33.1978 48.3978 33.1978C48.3103 33.1978 48.2227 33.1978 48.1351 33.2853C48.0476 33.3729 48.0476 33.548 48.1351 33.6356V33.7232C48.2227 33.8108 48.3103 33.9859 48.3978 33.9859C48.4854 33.9859 48.573 33.8983 48.573 33.8108C48.6606 33.7232 48.7481 33.6356 48.8357 33.6356C49.0108 33.4605 49.4487 33.1978 49.799 33.1978C49.8865 33.3729 49.9741 33.548 50.1493 33.7232C50.1493 33.8108 50.0617 33.8108 50.0617 33.8983C49.8865 34.161 49.799 34.4238 49.6238 34.5989C49.5363 34.6865 49.3611 34.8616 49.2736 34.8616C49.186 34.9492 48.6606 35.0367 48.8357 35.2995C48.9233 35.4746 49.0984 35.6497 49.2736 35.5622C49.3611 35.4746 49.4487 35.2995 49.5363 35.2119C49.6238 35.0367 49.799 34.8616 49.9741 34.6865C50.1493 34.5113 50.412 34.3362 50.6747 34.2486C50.9374 34.4238 51.1125 34.5989 51.4628 34.6865C51.4628 34.774 51.4628 34.8616 51.4628 34.9492C51.4628 35.2119 51.3753 35.387 51.1125 35.5622C50.8498 35.7373 51.2001 36 51.3753 35.9125C51.5504 35.9125 51.5504 35.5622 51.5504 35.4746C51.5504 35.2119 51.638 35.0367 51.8131 34.8616C51.9007 34.774 52.0758 34.774 52.1634 34.9492C52.251 35.2995 52.251 35.7373 52.1634 36C52.1634 36.1752 52.0758 36.4379 51.9882 36.613C51.9007 36.7006 51.8131 36.8757 51.9007 36.9633C51.9007 37.0509 51.9882 37.0509 51.9882 37.0509C52.1634 37.1384 52.3385 37.0509 52.4261 36.8757C52.4261 36.7882 52.4261 36.613 52.4261 36.5255C52.3385 36.2627 52.4261 35.9125 52.5137 35.5622C52.6012 35.2995 52.6012 34.8616 52.864 34.6865C52.9515 34.6865 53.0391 34.6865 53.1267 34.5989C53.6521 34.6865 53.8272 35.5622 53.7397 36C53.7397 36.0876 53.8272 36.2627 53.8272 36.2627C53.9148 36.2627 54.0899 36.2627 54.1775 36.1752C54.2651 36.1752 54.2651 36 54.1775 35.9125C53.9148 35.5622 53.8272 35.2119 53.9148 34.774C53.9148 34.5989 54.0024 34.4238 54.0024 34.3362C54.2651 33.8108 55.0532 33.7232 55.6662 33.9859C55.7538 34.0735 55.9289 34.161 56.0165 34.2486C56.1041 34.3362 56.2792 34.6865 56.4543 34.5113C56.8046 34.3362 56.5419 34.0735 56.2792 33.9859C56.1041 33.9859 55.9289 33.8983 55.8414 33.8108C55.5786 33.6356 55.3159 33.3729 55.0532 33.1978V33.1102C55.0532 33.0226 55.1408 32.9351 55.1408 32.8475H55.2284C55.5786 32.8475 55.8414 32.8475 56.1041 32.9351C56.2792 32.9351 56.5419 33.0226 56.6295 33.1102C56.8046 33.1978 56.9798 33.3729 57.1549 33.3729C57.3301 33.548 57.5052 33.3729 57.5052 33.1978Z" fill="#333333"/>
<path d="M57.5052 52.4636C57.5052 52.2885 57.3301 52.2009 57.1549 52.2009C56.9798 52.2009 56.7171 52.2885 56.5419 52.2009C56.3668 52.2009 56.1041 52.1134 55.9289 52.1134C55.6662 52.0258 55.4911 52.0258 55.2284 51.8506C55.2284 51.6755 55.3159 51.5004 55.3159 51.3252C55.4035 51.2376 55.4911 51.1501 55.5786 51.1501C55.9289 50.9749 56.3668 50.7998 56.8922 50.8874C57.0673 50.9749 57.2425 50.7122 57.1549 50.5371C57.0673 50.3619 56.8922 50.2744 56.7171 50.4495C56.4543 50.6247 56.1916 50.7122 55.9289 50.7122C55.7538 50.7122 55.5786 50.7122 55.4911 50.7122H55.4035C55.4035 50.5371 55.3159 50.3619 55.3159 50.2744C55.4911 50.1868 55.5786 50.0992 55.7538 50.0117C55.8414 50.0117 56.0165 49.9241 56.1916 49.9241C56.2792 49.9241 56.4543 49.9241 56.5419 49.9241C56.6295 49.9241 56.7171 49.9241 56.8046 49.8365C56.8922 49.7489 56.8922 49.5738 56.8046 49.4862V49.3987C56.7171 49.3111 56.6295 49.1359 56.5419 49.1359C56.4543 49.1359 56.3668 49.2235 56.3668 49.3111C56.2792 49.3987 56.1916 49.4862 56.1041 49.5738C55.9289 49.7489 55.5786 50.0117 55.2284 50.0117C55.1408 49.8365 54.9656 49.5738 54.7905 49.3987C54.7905 49.3987 54.7905 49.3111 54.8781 49.3111C54.9656 49.0484 55.1408 48.7857 55.3159 48.6105C55.4035 48.523 55.5786 48.3478 55.6662 48.2602C55.7538 48.1727 56.1916 48.0851 56.1041 47.8224C56.0165 47.6472 55.8414 47.4721 55.6662 47.5597C55.5786 47.6472 55.4911 47.8224 55.4035 47.91C55.3159 48.0851 55.1408 48.2602 54.9656 48.4354C54.7905 48.6105 54.5278 48.7857 54.2651 48.8732C54.0024 48.6981 53.7397 48.523 53.4769 48.4354C53.4769 48.3478 53.4769 48.2602 53.4769 48.1727C53.4769 47.91 53.5645 47.7348 53.7397 47.5597C54.0024 47.3845 53.6521 47.1218 53.4769 47.2094C53.3018 47.2094 53.3894 47.5597 53.3894 47.6473C53.3894 47.91 53.3018 48.0851 53.1267 48.2602C53.0391 48.3478 52.864 48.3478 52.7764 48.1727C52.6888 47.8224 52.6888 47.3845 52.6888 47.1218C52.6888 46.9467 52.7764 46.684 52.7764 46.5088C52.864 46.4213 52.864 46.2461 52.864 46.1585C52.864 46.071 52.7764 46.071 52.7764 46.071C52.6012 45.9834 52.4261 46.071 52.3385 46.2461C52.3385 46.3337 52.3385 46.5088 52.3385 46.5964C52.4261 46.8591 52.3385 47.2094 52.3385 47.5597C52.251 47.8224 52.251 48.2602 51.9882 48.4354C51.9007 48.4354 51.8131 48.4354 51.7255 48.523C51.2001 48.523 50.9374 47.5597 51.025 47.1218C51.025 47.0343 50.9374 46.8591 50.9374 46.8591C50.8498 46.8591 50.6747 46.8591 50.5871 46.9467C50.5871 46.9467 50.5871 47.1218 50.5871 47.2094C51.1125 47.8224 51.1125 48.8732 50.2368 49.0484C49.9741 49.136 49.6238 49.0484 49.3611 48.8732C49.2736 48.7857 49.0984 48.6981 49.0108 48.6105C48.9233 48.523 48.7481 48.1727 48.573 48.3478C48.2227 48.523 48.4854 48.7857 48.7481 48.8732C48.9233 48.8732 49.0984 48.9608 49.186 49.0484C49.4487 49.2235 49.7114 49.4862 49.8865 49.6614C49.8865 49.6614 49.9741 49.7489 49.9741 49.8365C49.9741 49.8365 49.9741 49.9241 49.8865 49.9241C49.8865 49.9241 49.799 49.9241 49.7114 49.9241C49.3611 49.9241 49.0984 49.8365 48.8357 49.8365C48.6606 49.8365 48.3978 49.7489 48.3103 49.6614C48.1351 49.5738 47.96 49.3111 47.7849 49.3987C47.6097 49.3987 47.4346 49.6614 47.4346 49.8365C47.4346 50.0117 47.5221 50.0992 47.7849 50.0992C47.96 50.0992 48.2227 50.0992 48.3978 50.0992C48.573 50.0992 48.8357 50.1868 49.0108 50.2744C49.2736 50.3619 49.4487 50.4495 49.7114 50.6247C49.7114 50.7998 49.6238 50.8874 49.6238 51.0625C49.5363 51.1501 49.3611 51.2376 49.2736 51.3252C48.8357 51.5004 48.3978 51.6755 47.96 51.5004C47.7849 51.4128 47.6097 51.6755 47.6973 51.8506C47.7849 52.0258 47.96 52.1134 48.1351 51.9382C48.3978 51.7631 48.6606 51.6755 49.0108 51.6755C49.186 51.6755 49.3611 51.6755 49.4487 51.6755C49.5363 51.6755 49.5363 51.6755 49.6238 51.6755C49.6238 51.8506 49.7114 51.9382 49.7114 52.1134C49.5363 52.2009 49.3611 52.2885 49.186 52.3761C49.0108 52.3761 48.9233 52.4636 48.7481 52.4636C48.6606 52.4636 48.4854 52.4636 48.3978 52.4636C48.3103 52.4636 48.2227 52.4636 48.1351 52.5512C48.0476 52.6388 48.0476 52.8139 48.1351 52.9015V52.9891C48.2227 53.0766 48.3103 53.2518 48.3978 53.2518C48.4854 53.2518 48.573 53.1642 48.573 53.0766C48.6606 52.9891 48.7481 52.9015 48.8357 52.9015C49.0108 52.7263 49.4487 52.4636 49.799 52.4636C49.8865 52.6388 49.9741 52.8139 50.1493 52.9891C50.1493 53.0766 50.0617 53.0766 50.0617 53.1642C49.8865 53.4269 49.799 53.6896 49.6238 53.8648C49.5363 53.9523 49.3611 54.1275 49.2736 54.1275C49.186 54.215 48.6606 54.3026 48.8357 54.5653C48.9233 54.7405 49.0984 54.9156 49.2736 54.828C49.3611 54.7405 49.4487 54.5653 49.5363 54.4778C49.6238 54.3026 49.799 54.1275 49.9741 53.9523C50.1493 53.7772 50.412 53.6021 50.6747 53.5145C50.9374 53.6896 51.1125 53.8648 51.4628 53.9523C51.4628 54.0399 51.4628 54.1275 51.4628 54.215C51.4628 54.4778 51.3753 54.6529 51.1125 54.828C50.8498 55.0032 51.2001 55.2659 51.3753 55.1783C51.5504 55.1783 51.5504 54.828 51.5504 54.7405C51.5504 54.4778 51.638 54.3026 51.8131 54.1275C51.9007 54.0399 52.0758 54.0399 52.1634 54.215C52.251 54.5653 52.251 55.0032 52.1634 55.2659C52.1634 55.441 52.0758 55.7037 51.9882 55.8789C51.9007 55.9665 51.8131 56.1416 51.9007 56.2292C51.9007 56.3167 51.9882 56.3167 51.9882 56.3167C52.1634 56.4043 52.3385 56.3167 52.4261 56.1416C52.4261 56.054 52.4261 55.8789 52.4261 55.7913C52.3385 55.5286 52.4261 55.1783 52.5137 54.828C52.6012 54.5653 52.6012 54.1275 52.864 53.9523C52.9515 53.9523 53.0391 53.9523 53.1267 53.8648C53.6521 53.9523 53.8272 54.828 53.7397 55.2659C53.7397 55.3535 53.8272 55.5286 53.8272 55.5286C53.9148 55.5286 54.0899 55.5286 54.1775 55.441C54.2651 55.441 54.2651 55.2659 54.1775 55.1783C53.9148 54.828 53.8272 54.4778 53.9148 54.0399C53.9148 53.8648 54.0024 53.6896 54.0024 53.6021C54.2651 53.0766 55.0532 52.9891 55.6662 53.2518C55.7538 53.3393 55.9289 53.4269 56.0165 53.5145C56.1041 53.6021 56.2792 53.9523 56.4543 53.7772C56.8046 53.6021 56.5419 53.3393 56.2792 53.2518C56.1041 53.2518 55.9289 53.1642 55.8414 53.0766C55.5786 52.9015 55.3159 52.6388 55.0532 52.4636V52.3761C55.0532 52.2885 55.1408 52.2009 55.1408 52.1134H55.2284C55.5786 52.1134 55.8414 52.1134 56.1041 52.2009C56.2792 52.2009 56.5419 52.2885 56.6295 52.3761C56.8046 52.4636 56.9798 52.6388 57.1549 52.6388C57.3301 52.8139 57.5052 52.6388 57.5052 52.4636Z" fill="#333333"/>
<path d="M29.2199 56.4044C28.6069 55.4411 27.9063 54.5654 27.2933 53.6021C27.0306 53.2518 26.8555 52.9891 26.5928 52.5513C25.8046 53.7773 25.0165 55.0032 24.3159 56.2292C24.1408 56.492 24.0532 56.6671 23.8781 56.9298C23.5278 57.5428 23.5278 58.2434 23.7029 58.8564C23.7029 58.8564 23.7029 58.8564 23.7029 58.9439C24.0532 60.2575 24.9289 61.0456 26.3301 61.2208C26.8555 61.3083 27.3809 61.2208 27.8188 61.0456C28.4317 60.8705 28.9572 60.4326 29.395 59.7321C29.5702 59.4694 29.6577 59.2942 29.7453 59.0315C29.9205 58.2434 29.7453 57.2801 29.2199 56.4044Z" fill="#333333"/>
<path d="M36.925 52.1131C36.312 51.1498 35.6114 50.2741 34.9984 49.3109C34.7357 48.9606 34.5606 48.6979 34.2978 48.26C33.5097 49.486 32.7216 50.712 32.021 51.938C31.8459 52.2007 31.7583 52.3758 31.5832 52.6385C31.2329 53.2515 31.2329 53.9521 31.408 54.5651C31.408 54.5651 31.408 54.5651 31.408 54.6527C31.7583 55.9662 32.634 56.7544 34.0351 56.9295C34.5606 57.0171 35.086 56.9295 35.5238 56.7544C36.1368 56.5792 36.6623 56.1414 37.1001 55.4408C37.2752 55.1781 37.3628 55.003 37.4504 54.7402C37.6255 53.8645 37.538 52.9888 36.925 52.1131Z" fill="#333333"/>
</svg>
