<svg width="18" height="23" viewBox="0 0 18 23" fill="none" xmlns="http://www.w3.org/2000/svg">
<path d="M17.5 23H0.5C0.224 23 0 22.776 0 22.5V6.5C0 6.367 0.0529999 6.24 0.146 6.146L6.146 0.146C6.24 0.053 6.367 0 6.5 0H17.5C17.776 0 18 0.224 18 0.5V22.5C18 22.776 17.776 23 17.5 23ZM1 22H17V1H6.707L1 6.707V22Z" fill="#5F1771"/>
<path d="M6.5 7H0.5C0.224 7 0 6.776 0 6.5C0 6.224 0.224 6 0.5 6H6V0.5C6 0.224 6.224 0 6.5 0C6.776 0 7 0.224 7 0.5V6.5C7 6.776 6.776 7 6.5 7Z" fill="#5F1771"/>
<path d="M14.5 20H3.5C3.224 20 3 19.776 3 19.5V9.5C3 9.224 3.224 9 3.5 9H14.5C14.776 9 15 9.224 15 9.5V19.5C15 19.776 14.776 20 14.5 20ZM4 19H14V10H4V19Z" fill="#5F1771"/>
<path d="M6.5 20C6.224 20 6 19.776 6 19.5V9.5C6 9.224 6.224 9 6.5 9C6.776 9 7 9.224 7 9.5V19.5C7 19.776 6.776 20 6.5 20Z" fill="#5F1771"/>
<path d="M10.5 20C10.224 20 10 19.776 10 19.5V9.5C10 9.224 10.224 9 10.5 9C10.776 9 11 9.224 11 9.5V19.5C11 19.776 10.776 20 10.5 20Z" fill="#5F1771"/>
<path d="M14.5 12H3.5C3.224 12 3 11.776 3 11.5C3 11.224 3.224 11 3.5 11H14.5C14.776 11 15 11.224 15 11.5C15 11.776 14.776 12 14.5 12Z" fill="#5F1771"/>
<path d="M14.5 14H3.5C3.224 14 3 13.776 3 13.5C3 13.224 3.224 13 3.5 13H14.5C14.776 13 15 13.224 15 13.5C15 13.776 14.776 14 14.5 14Z" fill="#5F1771"/>
<path d="M14.5 16H3.5C3.224 16 3 15.776 3 15.5C3 15.224 3.224 15 3.5 15H14.5C14.776 15 15 15.224 15 15.5C15 15.776 14.776 16 14.5 16Z" fill="#5F1771"/>
<path d="M14.5 18.5H3.5C3.224 18.5 3 18.276 3 18C3 17.724 3.224 17.5 3.5 17.5H14.5C14.776 17.5 15 17.724 15 18C15 18.276 14.776 18.5 14.5 18.5Z" fill="#5F1771"/>
</svg>
