<svg width="18" height="13" viewBox="0 0 18 13" fill="none" xmlns="http://www.w3.org/2000/svg">
<path d="M17.792 1.72532L14.9181 0.042542C14.8046 -0.0141807 14.6912 -0.0141807 14.5777 0.042542L11.7038 1.72532C11.6092 1.78204 11.5336 1.89548 11.5336 2.00893V3.84296L9.15126 2.46271C9.03782 2.40599 8.92437 2.40599 8.81093 2.46271L6.40966 3.86187V2.02784C6.40966 1.91439 6.35294 1.80095 6.2395 1.74422L3.36555 0.0614493C3.2521 0.0047266 3.13866 0.0047266 3.02521 0.0614493L0.170168 1.72532C0.0756303 1.78204 0 1.89548 0 2.00893V12.5215C0 12.7106 0.151261 12.8619 0.340336 12.8619H7.7521C7.90336 12.8619 8.03571 12.7295 8.03571 12.5783V10.6497C8.03571 10.4795 8.18698 10.3283 8.35714 10.3283H9.64286C9.81303 10.3283 9.96429 10.4795 9.96429 10.6497V12.5972C9.96429 12.7484 10.0966 12.8808 10.2479 12.8808H17.6597C17.8487 12.8808 18 12.7295 18 12.5404V2.02784C17.9622 1.89548 17.9055 1.78204 17.792 1.72532ZM2.66597 11.3871C2.66597 11.4627 2.60924 11.5194 2.53361 11.5194H1.45588C1.38025 11.5194 1.32353 11.4627 1.32353 11.3871V10.3093C1.32353 10.2337 1.38025 10.177 1.45588 10.177H2.53361C2.60924 10.177 2.66597 10.2337 2.66597 10.3093V11.3871ZM2.66597 8.98582C2.66597 9.06145 2.60924 9.11817 2.53361 9.11817H1.45588C1.38025 9.11817 1.32353 9.06145 1.32353 8.98582V7.90809C1.32353 7.83246 1.38025 7.77574 1.45588 7.77574H2.53361C2.60924 7.77574 2.66597 7.83246 2.66597 7.90809V8.98582ZM2.66597 6.56565C2.66597 6.64128 2.60924 6.698 2.53361 6.698H1.45588C1.38025 6.698 1.32353 6.64128 1.32353 6.56565V5.48792C1.32353 5.41229 1.38025 5.35557 1.45588 5.35557H2.53361C2.60924 5.35557 2.66597 5.41229 2.66597 5.48792V6.56565ZM2.66597 4.16439C2.66597 4.24002 2.60924 4.29674 2.53361 4.29674H1.45588C1.38025 4.29674 1.32353 4.24002 1.32353 4.16439V3.08666C1.32353 3.01103 1.38025 2.95431 1.45588 2.95431H2.53361C2.60924 2.95431 2.66597 3.01103 2.66597 3.08666V4.16439ZM5.08613 11.3871C5.08613 11.4627 5.02941 11.5194 4.95378 11.5194H3.87605C3.80042 11.5194 3.7437 11.4627 3.7437 11.3871V10.3093C3.7437 10.2337 3.80042 10.177 3.87605 10.177H4.95378C5.02941 10.177 5.08613 10.2337 5.08613 10.3093V11.3871ZM5.08613 8.98582C5.08613 9.06145 5.02941 9.11817 4.95378 9.11817H3.87605C3.80042 9.11817 3.7437 9.06145 3.7437 8.98582V7.90809C3.7437 7.83246 3.80042 7.77574 3.87605 7.77574H4.95378C5.02941 7.77574 5.08613 7.83246 5.08613 7.90809V8.98582ZM5.08613 6.56565C5.08613 6.64128 5.02941 6.698 4.95378 6.698H3.87605C3.80042 6.698 3.7437 6.64128 3.7437 6.56565V5.48792C3.7437 5.41229 3.80042 5.35557 3.87605 5.35557H4.95378C5.02941 5.35557 5.08613 5.41229 5.08613 5.48792V6.56565ZM5.08613 4.16439C5.08613 4.24002 5.02941 4.29674 4.95378 4.29674H3.87605C3.80042 4.29674 3.7437 4.24002 3.7437 4.16439V3.08666C3.7437 3.01103 3.80042 2.95431 3.87605 2.95431H4.95378C5.02941 2.95431 5.08613 3.01103 5.08613 3.08666V4.16439ZM10.645 7.07616C10.645 7.1896 10.5504 7.26523 10.4559 7.26523H9.54832V8.17279C9.54832 8.28624 9.45378 8.36187 9.35924 8.36187H8.64076C8.52731 8.36187 8.45168 8.26733 8.45168 8.17279V7.26523H7.54412C7.43067 7.26523 7.35504 7.17069 7.35504 7.07616V6.35767C7.35504 6.24422 7.44958 6.16859 7.54412 6.16859H8.45168V5.26103C8.45168 5.14758 8.54622 5.07195 8.64076 5.07195H9.35924C9.47269 5.07195 9.54832 5.16649 9.54832 5.26103V6.16859H10.4559C10.5693 6.16859 10.645 6.26313 10.645 6.35767V7.07616ZM14.2185 11.3871C14.2185 11.4627 14.1618 11.5194 14.0861 11.5194H13.0084C12.9328 11.5194 12.8761 11.4627 12.8761 11.3871V10.3093C12.8761 10.2337 12.9328 10.177 13.0084 10.177H14.0861C14.1618 10.177 14.2185 10.2337 14.2185 10.3093V11.3871ZM14.2185 8.98582C14.2185 9.06145 14.1618 9.11817 14.0861 9.11817H13.0084C12.9328 9.11817 12.8761 9.06145 12.8761 8.98582V7.90809C12.8761 7.83246 12.9328 7.77574 13.0084 7.77574H14.0861C14.1618 7.77574 14.2185 7.83246 14.2185 7.90809V8.98582ZM14.2185 6.56565C14.2185 6.64128 14.1618 6.698 14.0861 6.698H13.0084C12.9328 6.698 12.8761 6.64128 12.8761 6.56565V5.48792C12.8761 5.41229 12.9328 5.35557 13.0084 5.35557H14.0861C14.1618 5.35557 14.2185 5.41229 14.2185 5.48792V6.56565ZM14.2185 4.16439C14.2185 4.24002 14.1618 4.29674 14.0861 4.29674H13.0084C12.9328 4.29674 12.8761 4.24002 12.8761 4.16439V3.08666C12.8761 3.01103 12.9328 2.95431 13.0084 2.95431H14.0861C14.1618 2.95431 14.2185 3.01103 14.2185 3.08666V4.16439ZM16.6197 11.3871C16.6197 11.4627 16.563 11.5194 16.4874 11.5194H15.4097C15.334 11.5194 15.2773 11.4627 15.2773 11.3871V10.3093C15.2773 10.2337 15.334 10.177 15.4097 10.177H16.4874C16.563 10.177 16.6197 10.2337 16.6197 10.3093V11.3871ZM16.6197 8.98582C16.6197 9.06145 16.563 9.11817 16.4874 9.11817H15.4097C15.334 9.11817 15.2773 9.06145 15.2773 8.98582V7.90809C15.2773 7.83246 15.334 7.77574 15.4097 7.77574H16.4874C16.563 7.77574 16.6197 7.83246 16.6197 7.90809V8.98582ZM16.6197 6.56565C16.6197 6.64128 16.563 6.698 16.4874 6.698H15.4097C15.334 6.698 15.2773 6.64128 15.2773 6.56565V5.48792C15.2773 5.41229 15.334 5.35557 15.4097 5.35557H16.4874C16.563 5.35557 16.6197 5.41229 16.6197 5.48792V6.56565ZM16.6197 4.16439C16.6197 4.24002 16.563 4.29674 16.4874 4.29674H15.4097C15.334 4.29674 15.2773 4.24002 15.2773 4.16439V3.08666C15.2773 3.01103 15.334 2.95431 15.4097 2.95431H16.4874C16.563 2.95431 16.6197 3.01103 16.6197 3.08666V4.16439Z" fill="#79828B"/>
</svg>
