<svg width="23" height="21" viewBox="0 0 23 21" fill="none" xmlns="http://www.w3.org/2000/svg">
<path d="M19.2874 13.9505L17.9707 7.94242L17.0171 10.136C16.9953 10.1862 16.9597 10.2292 16.9145 10.26C16.8692 10.2908 16.8161 10.3081 16.7614 10.3099H13.806L12.6504 15.6609C12.6369 15.7254 12.6015 15.7832 12.5503 15.8247C12.499 15.8661 12.4351 15.8886 12.3692 15.8884C12.3 15.8863 12.234 15.8593 12.1832 15.8123C12.1324 15.7653 12.1004 15.7015 12.093 15.6327L10.9477 8.08815L9.78186 14.201C9.76945 14.266 9.73491 14.3247 9.6841 14.3672C9.6333 14.4096 9.56936 14.4331 9.50318 14.4337C9.43776 14.4336 9.37431 14.4112 9.32322 14.3704C9.27213 14.3295 9.23643 14.2725 9.22196 14.2087L7.90018 8.20064L6.94656 10.3917C6.92454 10.4417 6.88889 10.4845 6.84368 10.5153C6.79848 10.546 6.74553 10.5634 6.6909 10.5655H3.72522C3.6486 10.5655 3.57512 10.5351 3.52094 10.4809C3.46676 10.4267 3.43632 10.3532 3.43632 10.2766C3.43632 10.2 3.46676 10.1265 3.52094 10.0723C3.57512 10.0182 3.6486 9.98772 3.72522 9.98772H6.4966L7.72889 7.15243C7.75327 7.09643 7.79477 7.04961 7.84743 7.01867C7.90009 6.98774 7.9612 6.97429 8.02198 6.98025C8.08276 6.98622 8.14009 7.01129 8.18573 7.05187C8.23137 7.09245 8.26297 7.14645 8.27601 7.20612L9.48017 12.7105L10.6971 6.31897C10.7102 6.25332 10.7456 6.19423 10.7973 6.1518C10.8491 6.10937 10.914 6.08622 10.9809 6.08632C11.0505 6.08778 11.1172 6.11454 11.1685 6.1616C11.2197 6.20865 11.2521 6.27278 11.2596 6.34198L12.4152 14.0118L13.2972 9.92125C13.3107 9.85675 13.3461 9.7989 13.3973 9.75744C13.4486 9.71599 13.5125 9.69348 13.5784 9.69371H16.5927L17.802 6.91211C17.8272 6.8566 17.869 6.81029 17.9217 6.7796C17.9744 6.74892 18.0353 6.73536 18.096 6.74081C18.1568 6.74677 18.2142 6.77171 18.2601 6.81208C18.306 6.85245 18.338 6.90622 18.3516 6.9658L19.5558 12.4702L20.7728 6.07865C20.7857 6.01275 20.821 5.95335 20.8728 5.91049C20.9245 5.86763 20.9894 5.84394 21.0565 5.84344C21.1264 5.84483 21.1934 5.8715 21.2451 5.91851C21.2968 5.96552 21.3298 6.02968 21.3378 6.0991L21.9028 9.85733C22.2756 8.72505 22.4596 7.53912 22.4473 6.34709C22.4561 5.51001 22.2983 4.67954 21.9832 3.90399C21.668 3.12844 21.2018 2.42329 20.6117 1.82955C18.9473 0.083374 16.9302 -0.343582 14.6624 0.295573C13.2461 0.69185 12.157 1.57388 11.2596 2.71925C11.1087 2.90844 11.1011 2.90844 10.9681 2.71925C9.99405 1.31822 8.72853 0.341593 7.00025 0.0884871C5.92956 -0.106169 4.82516 0.0219802 3.82749 0.456641C2.99307 0.84084 2.251 1.39991 1.65154 2.09597C1.05208 2.79204 0.609243 3.60882 0.353041 4.49099C-0.201745 6.23972 -0.0611314 7.98077 0.485985 9.70393C1.05521 11.4326 1.96933 13.0277 3.17299 14.3928C5.3947 16.998 8.1405 18.9257 11.1394 20.5287C11.1827 20.547 11.2292 20.5565 11.2762 20.5565C11.3232 20.5565 11.3697 20.547 11.413 20.5287C11.7658 20.3574 12.1186 20.181 12.4535 19.979C14.2949 18.846 16.0137 17.5248 17.5821 16.0367C18.2292 15.4371 18.838 14.7976 19.405 14.1218C19.3448 14.0824 19.3025 14.0208 19.2874 13.9505Z" fill="#333333"/>
<path d="M21.0153 7.83252L19.9492 13.429C20.256 13.0199 20.5475 12.5981 20.8159 12.1507C21.0606 11.748 21.2817 11.3314 21.4781 10.903L21.0153 7.83252Z" fill="#333333"/>
</svg>
