<svg width="17" height="16" viewBox="0 0 17 16" fill="none" xmlns="http://www.w3.org/2000/svg">
<path d="M8.50808 0.000143601C8.16406 -0.00545133 7.91561 0.153279 7.68192 0.330244L0.423489 6.11209C-0.397329 6.7325 0.0548799 8.00815 1.09592 8.00815H2.23852V14.0739C2.23852 14.771 2.88359 15.2998 3.61952 15.2998H6.88569V11.4946C6.88569 10.8589 7.49804 10.2501 8.4991 10.2231C9.50123 10.2501 10.1127 10.8589 10.1127 11.4946V15.3H13.38C14.1161 15.3 14.761 14.7712 14.761 14.0741V8.00836H15.9025C16.9446 8.00939 17.3981 6.73271 16.576 6.11229L9.3088 0.325064C9.08708 0.156594 8.85231 0.00573853 8.50808 0.000143601Z" fill="#40C9BB"/>
</svg>
