<svg width="269" height="56" viewBox="0 0 269 56" fill="none" xmlns="http://www.w3.org/2000/svg">
<path fill-rule="evenodd" clip-rule="evenodd" d="M24 2.3094C26.4752 0.880338 29.5248 0.880339 32 2.3094L48.2487 11.6906C50.7239 13.1197 52.2487 15.7607 52.2487 18.6188V37.3812C52.2487 40.2393 50.7239 42.8803 48.2487 44.3094L32 53.6906C29.5248 55.1197 26.4752 55.1197 24 53.6906L7.75129 44.3094C5.27608 42.8803 3.75129 40.2393 3.75129 37.3812V18.6188C3.75129 15.7607 5.27608 13.1197 7.75129 11.6906L24 2.3094Z" fill="#7C1D77"/>
<path d="M27.3833 30.3884C27.6494 30.6545 28.0608 30.6545 28.3027 30.3884L29.2464 29.4447C28.5931 28.743 28.1818 27.7752 28.1818 26.759C28.1818 24.5571 29.9723 22.7908 32.1499 22.7908C33.1177 22.7908 34.013 23.1538 34.7147 23.7345C35.489 22.2585 35.247 20.3954 34.013 19.1614C33.2629 18.4113 32.2467 18.0242 31.2305 18.0242C30.2384 18.0242 29.2222 18.4113 28.4721 19.1614L27.8188 19.8147L27.1655 19.1614C26.4396 18.3871 25.4234 18 24.4314 18C23.3909 18 22.3747 18.4113 21.6004 19.2098C20.1245 20.7583 20.2213 23.2263 21.7214 24.7265L27.3833 30.3884Z" fill="white" fill-opacity="0.790138"/>
<path d="M32.1741 23.7344C30.5046 23.7344 29.1496 25.0894 29.1496 26.7589C29.1496 28.4284 30.5046 29.7834 32.1741 29.7834C33.8436 29.7834 35.1986 28.4284 35.1986 26.7589C35.1986 25.0894 33.8436 23.7344 32.1741 23.7344ZM33.8436 27.267H32.658V28.4526H31.6418V27.267H30.4562V26.2508H31.6418V25.0652H32.658V26.2508H33.8436V27.267Z" fill="white" fill-opacity="0.790138"/>
<path d="M35.1018 33.7757C34.5453 34.0177 33.6016 34.2838 32.6096 34.5742C32.2709 35.1791 31.6176 35.7114 30.5771 35.9533C30.3352 36.0017 30.069 36.0501 29.7545 36.0743C29.0286 36.1227 28.1575 36.0743 27.2139 36.0501C27.1413 36.0501 27.0929 36.0501 27.0203 36.0501C26.7784 36.0501 26.5848 35.8807 26.5606 35.6388C26.5364 35.3484 26.7542 35.1065 27.0445 35.1065C27.1171 35.1065 27.1897 35.1065 27.2623 35.1065C28.4963 35.1549 29.6577 35.2033 30.3594 35.0581C31.6902 34.7435 32.0531 33.9209 31.9321 33.2192C31.8353 32.6627 31.3998 32.1304 30.7465 32.203C29.8029 32.2997 28.6898 32.2755 27.601 32.2513C26.367 32.2271 25.0846 32.2271 24.1894 32.3723C23.1974 32.5417 21.1649 33.3644 19.4228 34.6468C18.5517 35.3 17.5839 36.0501 17.0032 36.5098C16.7128 36.7518 16.6644 37.1631 16.9064 37.4535L19.6647 40.7441C19.9067 41.0345 20.318 41.0587 20.6084 40.8167L21.552 40.0425C21.7698 39.8489 22.0601 39.8005 22.3505 39.8731C24.141 40.357 26.0283 40.6474 27.2623 40.6716C29.948 40.6958 34.9808 37.3083 36.4326 36.2195C37.8601 35.1307 36.7229 33.1224 35.1018 33.7757Z" fill="white" fill-opacity="0.790138"/>
<path d="M59.824 35H61.056V31.5L62.862 29.526L66.306 35H67.72L63.674 28.588L67.23 24.64H65.746L61.056 29.988V24.64H59.824V35ZM69.5912 35H70.8232V24.64H69.5912V35ZM73.6506 35H74.8126V26.586H74.8406L80.4826 35H81.5886V24.64H80.4266V32.83H80.3986L74.9526 24.64H73.6506V35ZM84.2758 35H87.0058C90.2958 35 92.2278 33.306 92.2278 29.792C92.2278 26.32 90.3378 24.64 87.0058 24.64H84.2758V35ZM85.5078 33.894V25.774H87.1318C89.6518 25.774 90.9958 27.006 90.9958 29.792C90.9958 32.676 89.6658 33.894 87.1598 33.894H85.5078ZM94.4225 35H95.6405V30.534H97.9785L100.457 35H101.801L99.2525 30.38C100.723 30.072 101.661 29.204 101.661 27.538C101.661 25.634 100.331 24.64 97.9785 24.64H94.4225V35ZM95.6405 29.442V25.76H97.8945C99.5465 25.76 100.443 26.222 100.443 27.58C100.443 28.994 99.5325 29.442 97.9085 29.442H95.6405ZM104.036 35H110.686V33.88H105.268V30.114H109.076V29.008H105.268V25.774H110.392V24.64H104.036V35ZM112.706 35H115.436C118.726 35 120.658 33.306 120.658 29.792C120.658 26.32 118.768 24.64 115.436 24.64H112.706V35ZM113.938 33.894V25.774H115.562C118.082 25.774 119.426 27.006 119.426 29.792C119.426 32.676 118.096 33.894 115.59 33.894H113.938ZM122.853 35H125.583C128.873 35 130.805 33.306 130.805 29.792C130.805 26.32 128.915 24.64 125.583 24.64H122.853V35ZM124.085 33.894V25.774H125.709C128.229 25.774 129.573 27.006 129.573 29.792C129.573 32.676 128.243 33.894 125.737 33.894H124.085ZM136.56 35H137.106V29.75H143.308V35H143.854V24.64H143.308V29.246H137.106V24.64H136.56V35ZM146.816 35H152.962V34.496H147.362V29.75H151.422V29.246H147.362V25.144H152.752V24.64H146.816V35ZM154.345 35H154.905L156.179 31.416H160.561L161.821 35H162.395L158.685 24.598H158.069L154.345 35ZM156.347 30.926L158.363 25.214L160.379 30.926H156.347ZM164.525 35H170.349V34.496H165.071V24.64H164.525V35ZM175.074 35H175.62V25.144H179.078V24.64H171.616V25.144H175.074V35ZM181.168 35H181.714V29.75H187.916V35H188.462V24.64H187.916V29.246H181.714V24.64H181.168V35ZM196.587 35H197.147L199.541 25.452L202.033 35H202.607L205.309 24.64H204.763L202.341 34.132L199.863 24.64H199.247L196.881 34.132L194.333 24.64H193.773L196.587 35ZM209.915 35.154C211.301 35.154 212.183 34.342 212.785 33.348L212.407 33.096C211.819 34.02 211.091 34.692 209.929 34.692C208.403 34.692 207.381 33.264 207.381 31.388V31.304H212.813C212.813 31.304 212.813 31.262 212.813 31.234C212.813 28.854 211.595 27.496 209.943 27.496C208.417 27.496 206.863 28.742 206.863 31.332C206.863 33.53 208.123 35.154 209.915 35.154ZM207.395 30.87C207.549 28.91 208.739 27.958 209.943 27.958C211.315 27.958 212.183 29.106 212.281 30.87H207.395ZM217.994 35.154C219.744 35.154 221.074 33.894 221.074 31.318C221.074 28.742 219.744 27.496 218.008 27.496C216.86 27.496 216.006 28.182 215.446 28.784C215.446 28.616 215.446 24.64 215.446 24.64H214.928V35H215.446V33.866C216.104 34.566 216.902 35.154 217.994 35.154ZM218.022 34.692C217.028 34.692 216.3 34.202 215.446 33.306V29.33C216.104 28.616 216.902 27.958 217.994 27.958C219.394 27.958 220.556 29.008 220.556 31.332C220.556 33.656 219.422 34.692 218.022 34.692ZM226.572 35H227.118V30.058H229.75C232.004 30.058 233.292 29.078 233.292 27.328C233.292 25.69 232.102 24.64 229.806 24.64H226.572V35ZM227.118 29.568V25.144H229.778C231.71 25.144 232.746 25.886 232.746 27.342C232.746 28.84 231.696 29.568 229.792 29.568H227.118ZM238.05 35.154C239.8 35.154 241.242 33.628 241.242 31.332C241.242 28.994 239.8 27.496 238.05 27.496C236.286 27.496 234.858 28.994 234.858 31.332C234.858 33.628 236.3 35.154 238.05 35.154ZM238.05 34.692C236.44 34.692 235.376 33.194 235.376 31.318C235.376 29.372 236.482 27.958 238.05 27.958C239.66 27.958 240.738 29.442 240.738 31.318C240.738 33.264 239.618 34.692 238.05 34.692ZM243.374 35H243.892V30.002C244.55 28.728 245.586 27.916 246.874 27.986L247.112 28L247.21 27.524L246.972 27.51C245.558 27.44 244.592 28.196 243.892 29.274V27.65H243.374V35ZM251.152 35.098C251.432 35.098 251.754 35.056 251.992 35.014V34.524C251.74 34.594 251.488 34.622 251.208 34.622C250.242 34.622 249.976 34.16 249.976 33.348V28.126H251.964V27.65H249.976V24.976H249.458V27.65H248.17V28.126H249.458V33.376C249.458 34.552 249.934 35.098 251.152 35.098ZM255.598 35.168C256.816 35.168 257.88 34.524 258.65 33.81C258.664 34.356 258.706 34.678 258.818 35H259.364C259.224 34.608 259.168 34.202 259.168 33.278V29.68C259.168 28.35 258.482 27.496 256.984 27.496C255.542 27.496 254.534 28.126 253.778 28.868L254.142 29.176C254.842 28.532 255.682 27.958 256.97 27.958C258.09 27.958 258.65 28.588 258.65 29.722V30.24C255.01 30.814 253.54 31.808 253.54 33.362C253.54 34.496 254.282 35.168 255.598 35.168ZM255.626 34.706C254.646 34.706 254.058 34.23 254.058 33.334C254.058 32.2 255.024 31.234 258.65 30.646V33.278C257.95 34.006 256.83 34.706 255.626 34.706ZM261.675 35H262.193V24.64H261.675V35Z" fill="#673D86"/>
</svg>
