<svg width="17" height="18" viewBox="0 0 17 18" fill="none" xmlns="http://www.w3.org/2000/svg">
<path d="M10.6262 13.4598C10.4383 13.4598 10.2581 13.5344 10.1252 13.6673C9.99239 13.8002 9.91776 13.9803 9.91776 14.1682V14.8766C9.91776 15.0645 9.84312 15.2447 9.71027 15.3776C9.57742 15.5104 9.39723 15.585 9.20935 15.585H2.12523C1.93735 15.585 1.75716 15.5104 1.62431 15.3776C1.49146 15.2447 1.41682 15.0645 1.41682 14.8766V2.12523C1.41682 1.93735 1.49146 1.75716 1.62431 1.62431C1.75716 1.49146 1.93735 1.41682 2.12523 1.41682H9.20935C9.39723 1.41682 9.57742 1.49146 9.71027 1.62431C9.84312 1.75716 9.91776 1.93735 9.91776 2.12523V2.83364C9.91776 3.02153 9.99239 3.20171 10.1252 3.33457C10.2581 3.46742 10.4383 3.54206 10.6262 3.54206C10.8141 3.54206 10.9942 3.46742 11.1271 3.33457C11.2599 3.20171 11.3346 3.02153 11.3346 2.83364V2.12523C11.3346 1.56159 11.1107 1.02103 10.7121 0.622467C10.3136 0.223908 9.77299 0 9.20935 0H2.12523C1.56159 0 1.02103 0.223908 0.622467 0.622467C0.223908 1.02103 0 1.56159 0 2.12523V14.8766C0 15.4403 0.223908 15.9808 0.622467 16.3794C1.02103 16.778 1.56159 17.0019 2.12523 17.0019H9.20935C9.77299 17.0019 10.3136 16.778 10.7121 16.3794C11.1107 15.9808 11.3346 15.4403 11.3346 14.8766V14.1682C11.3346 13.9803 11.2599 13.8002 11.1271 13.6673C10.9942 13.5344 10.8141 13.4598 10.6262 13.4598Z" fill="#79828B"/>
<path d="M16.3785 6.99912L14.3737 4.99432C14.2382 4.87826 14.0638 4.81762 13.8856 4.8245C13.7073 4.83139 13.5381 4.9053 13.412 5.03146C13.2858 5.15763 13.2119 5.32675 13.205 5.50504C13.1981 5.68333 13.2588 5.85766 13.3748 5.99318L15.1671 7.79254H4.9589C4.77102 7.79254 4.59083 7.86718 4.45798 8.00003C4.32512 8.13288 4.25049 8.31307 4.25049 8.50095C4.25049 8.68884 4.32512 8.86902 4.45798 9.00188C4.59083 9.13473 4.77102 9.20936 4.9589 9.20936H15.1671L13.3748 11.0087C13.2429 11.1415 13.1688 11.321 13.1688 11.5082C13.1688 11.6953 13.2429 11.8749 13.3748 12.0076C13.5076 12.1395 13.6871 12.2136 13.8743 12.2136C14.0614 12.2136 14.241 12.1395 14.3737 12.0076L16.3785 10.0028C16.7765 9.6043 17 9.06414 17 8.50095C17 7.93776 16.7765 7.3976 16.3785 6.99912Z" fill="#79828B"/>
</svg>
