<svg width="31" height="31" viewBox="0 0 31 31" fill="none" xmlns="http://www.w3.org/2000/svg">
<mask id="mask0" mask-type="alpha" maskUnits="userSpaceOnUse" x="0" y="0" width="31" height="31">
<circle cx="15.5" cy="15.5" r="15.5" fill="#F6F8FA"/>
</mask>
<g mask="url(#mask0)">
<path d="M19.8666 14.6948C19.4408 13.7367 18.0036 10.5961 16.46 7.2427C14.8631 3.7828 13.0001 -0.156158 12.6807 -0.954597C12.6275 -1.11428 12.4678 -1.27397 12.3081 -1.38043C12.1484 -1.43366 11.9355 -1.48689 11.7758 -1.38043C11.6161 -1.3272 11.4564 -1.16751 11.35 -1.00783C11.2435 -0.848138 11.2435 -0.635221 11.35 -0.422305C11.6693 0.429363 13.4259 4.20864 15.1292 7.88145C16.6197 11.022 18.1101 14.3222 18.5359 15.2803C18.8553 16.0788 18.8553 17.0901 18.4827 17.7821C18.2165 18.2612 17.7907 18.5273 17.2584 18.6338C16.8326 18.687 16.4067 18.6338 15.8212 18.5805C12.7872 18.2079 8.8482 18.1015 5.3883 20.0709C5.22861 20.1774 5.12215 20.3371 5.06892 20.4968C5.01569 20.6565 5.06892 20.8694 5.12215 21.0291C5.22861 21.242 5.49476 21.4017 5.7609 21.4017C5.86736 21.4017 6.02705 21.3484 6.13351 21.2952C9.27403 19.4854 12.8936 19.6451 15.6615 19.9645C16.1938 20.0177 16.8326 20.1242 17.4713 20.0177C18.4827 19.858 19.2279 19.3257 19.7602 18.4208C20.3457 17.3563 20.3989 15.9191 19.8666 14.6948Z" fill="black"/>
<path d="M10.1264 17.6225C10.8717 17.4628 11.5104 17.3032 12.0959 17.037C12.3088 16.9306 12.575 16.8773 12.7879 16.7709L13.2137 16.6112C13.6928 16.4515 14.2783 16.2918 14.8106 16.3983C15.0235 16.4515 15.1832 16.558 15.2897 16.7176C15.3961 16.8773 15.3961 17.037 15.3961 17.0902C15.3961 17.1435 15.2897 17.1967 15.1832 17.2499C15.13 17.3032 14.9703 17.3564 14.9703 17.5161C14.9703 17.7822 15.3961 17.8355 15.4494 17.8355C15.5558 17.8355 15.7155 17.7822 15.822 17.729C15.9817 17.6225 16.1414 17.4628 16.2478 17.2499C16.301 17.1435 16.3543 17.037 16.3543 16.9306C16.4075 16.8241 16.4075 16.7176 16.4075 16.6112C16.4075 16.3983 16.3543 16.1853 16.301 15.9724C16.1414 15.5466 15.7687 15.2804 15.3961 15.1208C15.0768 15.0143 14.6509 14.9611 14.2251 15.0143C13.8525 15.0675 13.5863 15.1208 13.267 15.2272L12.7347 15.3869C12.6282 15.4401 12.5218 15.4401 12.4153 15.4934C12.0427 15.5998 11.6701 15.8127 11.2443 16.0257C9.96676 16.6644 8.52957 17.3564 7.6779 16.1321C7.46499 15.8127 7.3053 15.3869 7.25207 14.9078C7.14561 14.0029 7.41176 13.0981 7.89082 12.3528C7.89082 12.2996 7.99728 12.1932 7.94405 12.0335L7.89082 11.927L7.78436 11.8738C7.73113 11.8738 7.62468 11.8738 7.51822 11.927C7.03915 12.3528 6.66655 12.9384 6.45363 13.7368C6.24072 14.5352 6.24072 15.2804 6.45363 15.9192C6.87947 17.4628 8.2102 18.0484 10.1264 17.6225Z" fill="black"/>
<path d="M11.4563 8.78626C11.4563 8.6798 11.3499 8.62657 11.2434 8.62657C11.1369 8.62657 10.9773 8.6798 10.8708 8.62657C10.7643 8.62657 10.6047 8.57334 10.4982 8.57334C10.3385 8.52011 10.232 8.52011 10.0724 8.41365C10.0724 8.30719 10.1256 8.20073 10.1256 8.09427C10.1788 8.04105 10.2321 7.98782 10.2853 7.98782C10.4982 7.88136 10.7643 7.7749 11.0837 7.82813C11.1902 7.88136 11.2966 7.72167 11.2434 7.61521C11.1902 7.50875 11.0837 7.45552 10.9773 7.56198C10.8176 7.66844 10.6579 7.72167 10.4982 7.72167C10.3917 7.72167 10.2853 7.72167 10.2321 7.72167H10.1788C10.1788 7.61521 10.1256 7.50875 10.1256 7.45552C10.232 7.4023 10.2853 7.34907 10.3917 7.29584C10.445 7.29584 10.5514 7.24261 10.6579 7.24261C10.7111 7.24261 10.8176 7.24261 10.8708 7.24261C10.924 7.24261 10.9773 7.24261 11.0305 7.18938C11.0837 7.13615 11.0837 7.02969 11.0305 6.97646V6.92323C10.9773 6.87 10.924 6.76354 10.8708 6.76354C10.8176 6.76354 10.7643 6.81677 10.7643 6.87C10.7111 6.92323 10.6579 6.97646 10.6047 7.02969C10.4982 7.13615 10.2853 7.29584 10.0724 7.29584C10.0191 7.18938 9.91267 7.02969 9.80622 6.92323C9.80622 6.92323 9.80622 6.87 9.85945 6.87C9.91267 6.71031 10.0191 6.55063 10.1256 6.44417C10.1788 6.39094 10.2853 6.28448 10.3385 6.23125C10.3917 6.17802 10.6579 6.12479 10.6047 5.96511C10.5514 5.85865 10.445 5.75219 10.3385 5.80542C10.2853 5.85865 10.2321 5.96511 10.1788 6.01833C10.1256 6.12479 10.0191 6.23125 9.91267 6.33771C9.80622 6.44417 9.64653 6.55063 9.48684 6.60386C9.32715 6.4974 9.16747 6.39094 9.00778 6.33771C9.00778 6.28448 9.00778 6.23125 9.00778 6.17802C9.00778 6.01833 9.06101 5.91188 9.16747 5.80542C9.32715 5.69896 9.11424 5.53927 9.00778 5.5925C8.90132 5.5925 8.95455 5.80542 8.95455 5.85865C8.95455 6.01834 8.90132 6.12479 8.79486 6.23125C8.74163 6.28448 8.63517 6.28448 8.58194 6.17802C8.52871 5.96511 8.52871 5.69896 8.52871 5.53927C8.52871 5.43281 8.58194 5.27313 8.58194 5.16667C8.63517 5.11344 8.63517 5.00698 8.63517 4.95375C8.63517 4.90052 8.58194 4.90052 8.58194 4.90052C8.47549 4.84729 8.36903 4.90052 8.3158 5.00698C8.3158 5.06021 8.3158 5.16667 8.3158 5.2199C8.36903 5.37958 8.3158 5.5925 8.3158 5.80542C8.26257 5.96511 8.26257 6.23125 8.10288 6.33771C8.04965 6.33771 7.99642 6.33771 7.94319 6.39094C7.62382 6.39094 7.46413 5.80542 7.51736 5.53927C7.51736 5.48604 7.46413 5.37958 7.46413 5.37958C7.4109 5.37958 7.30444 5.37958 7.25121 5.43281C7.25121 5.43281 7.25121 5.53927 7.25121 5.5925C7.57059 5.96511 7.57059 6.60386 7.0383 6.71031C6.87861 6.76354 6.66569 6.71031 6.506 6.60386C6.45278 6.55063 6.34632 6.4974 6.29309 6.44417C6.23986 6.39094 6.1334 6.17802 6.02694 6.28448C5.81402 6.39094 5.97371 6.55063 6.1334 6.60386C6.23986 6.60386 6.34632 6.65709 6.39955 6.71031C6.55923 6.81677 6.71892 6.97646 6.82538 7.08292C6.82538 7.08292 6.87861 7.13615 6.87861 7.18938C6.87861 7.18938 6.87861 7.24261 6.82538 7.24261C6.82538 7.24261 6.77215 7.24261 6.71892 7.24261C6.506 7.24261 6.34632 7.18938 6.18663 7.18938C6.08017 7.18938 5.92048 7.13615 5.86725 7.08292C5.76079 7.02969 5.65434 6.87 5.54788 6.92323C5.44142 6.92323 5.33496 7.08292 5.33496 7.18938C5.33496 7.29584 5.38819 7.34907 5.54788 7.34907C5.65434 7.34907 5.81402 7.34907 5.92048 7.34907C6.02694 7.34907 6.18663 7.4023 6.29309 7.45552C6.45277 7.50875 6.55923 7.56198 6.71892 7.66844C6.71892 7.7749 6.66569 7.82813 6.66569 7.93459C6.61246 7.98782 6.506 8.04105 6.45278 8.09427C6.18663 8.20073 5.92048 8.30719 5.65434 8.20073C5.54788 8.1475 5.44142 8.30719 5.49465 8.41365C5.54788 8.52011 5.65434 8.57334 5.76079 8.46688C5.92048 8.36042 6.08017 8.30719 6.29309 8.30719C6.39955 8.30719 6.506 8.30719 6.55923 8.30719C6.61246 8.30719 6.61246 8.30719 6.66569 8.30719C6.66569 8.41365 6.71892 8.46688 6.71892 8.57334C6.61246 8.62657 6.506 8.6798 6.39955 8.73303C6.29309 8.73303 6.23986 8.78626 6.1334 8.78626C6.08017 8.78626 5.97371 8.78626 5.92048 8.78626C5.86725 8.78626 5.81402 8.78625 5.76079 8.83948C5.70757 8.89271 5.70757 8.99917 5.76079 9.0524V9.10563C5.81402 9.15886 5.86725 9.26532 5.92048 9.26532C5.97371 9.26532 6.02694 9.21209 6.02694 9.15886C6.08017 9.10563 6.1334 9.0524 6.18663 9.0524C6.29309 8.94594 6.55923 8.78626 6.77215 8.78626C6.82538 8.89271 6.87861 8.99917 6.98507 9.10563C6.98507 9.15886 6.93184 9.15886 6.93184 9.21209C6.82538 9.37178 6.77215 9.53146 6.66569 9.63792C6.61246 9.69115 6.506 9.79761 6.45278 9.79761C6.39955 9.85084 6.08017 9.90407 6.18663 10.0638C6.23986 10.1702 6.34632 10.2767 6.45278 10.2234C6.506 10.1702 6.55923 10.0638 6.61246 10.0105C6.66569 9.90407 6.77215 9.79761 6.87861 9.69115C6.98507 9.58469 7.14476 9.47823 7.30444 9.42501C7.46413 9.53146 7.57059 9.63792 7.78351 9.69115C7.78351 9.74438 7.78351 9.79761 7.78351 9.85084C7.78351 10.0105 7.73028 10.117 7.57059 10.2234C7.4109 10.3299 7.62382 10.4896 7.73028 10.4364C7.83673 10.4364 7.83674 10.2234 7.83674 10.1702C7.83674 10.0105 7.88996 9.90407 7.99642 9.79761C8.04965 9.74438 8.15611 9.74438 8.20934 9.85084C8.26257 10.0638 8.26257 10.3299 8.20934 10.4896C8.20934 10.596 8.15611 10.7557 8.10288 10.8622C8.04965 10.9154 7.99642 11.0219 8.04965 11.0751C8.04965 11.1283 8.10288 11.1283 8.10288 11.1283C8.20934 11.1816 8.3158 11.1283 8.36903 11.0219C8.36903 10.9687 8.36903 10.8622 8.36903 10.809C8.3158 10.6493 8.36903 10.4364 8.42226 10.2234C8.47549 10.0638 8.47549 9.79761 8.63517 9.69115C8.6884 9.69115 8.74163 9.69115 8.79486 9.63792C9.11424 9.69115 9.2207 10.2234 9.16747 10.4896C9.16747 10.5428 9.2207 10.6493 9.2207 10.6493C9.27392 10.6493 9.38038 10.6493 9.43361 10.596C9.48684 10.596 9.48684 10.4896 9.43361 10.4364C9.27392 10.2234 9.22069 10.0105 9.27392 9.74438C9.27392 9.63792 9.32715 9.53146 9.32715 9.47823C9.48684 9.15886 9.9659 9.10563 10.3385 9.26532C10.3917 9.31855 10.4982 9.37178 10.5514 9.42501C10.6047 9.47823 10.7111 9.69115 10.8176 9.58469C11.0305 9.47824 10.8708 9.31855 10.7111 9.26532C10.6047 9.26532 10.4982 9.21209 10.445 9.15886C10.2853 9.0524 10.1256 8.89271 9.9659 8.78626V8.73303C9.9659 8.6798 10.0191 8.62657 10.0191 8.57334H10.0724C10.2853 8.57334 10.445 8.57334 10.6047 8.62657C10.7111 8.62657 10.8708 8.6798 10.924 8.73303C11.0305 8.78625 11.1369 8.89271 11.2434 8.89271C11.3499 9.0524 11.4563 8.89271 11.4563 8.78626Z" fill="black"/>
<path d="M27.052 12.8849C27.052 12.7784 26.9456 12.7252 26.8391 12.7252C26.7326 12.7252 26.573 12.7784 26.4665 12.7252C26.36 12.7252 26.2004 12.672 26.0939 12.672C25.9342 12.6187 25.8278 12.6187 25.6681 12.5123C25.6681 12.4058 25.7213 12.2994 25.7213 12.1929C25.7745 12.1397 25.8278 12.0864 25.881 12.0864C26.0939 11.98 26.36 11.8735 26.6794 11.9268C26.7859 11.98 26.8923 11.8203 26.8391 11.7138C26.7859 11.6074 26.6794 11.5542 26.573 11.6606C26.4133 11.7671 26.2536 11.8203 26.0939 11.8203C25.9874 11.8203 25.881 11.8203 25.8278 11.8203H25.7745C25.7745 11.7138 25.7213 11.6074 25.7213 11.5542C25.8278 11.5009 25.881 11.4477 25.9874 11.3945C26.0407 11.3945 26.1471 11.3412 26.2536 11.3412C26.3068 11.3412 26.4133 11.3412 26.4665 11.3412C26.5197 11.3412 26.573 11.3412 26.6262 11.288C26.6794 11.2348 26.6794 11.1283 26.6262 11.0751V11.0219C26.573 10.9686 26.5197 10.8622 26.4665 10.8622C26.4133 10.8622 26.36 10.9154 26.36 10.9686C26.3068 11.0219 26.2536 11.0751 26.2004 11.1283C26.0939 11.2348 25.881 11.3945 25.6681 11.3945C25.6148 11.288 25.5084 11.1283 25.4019 11.0219C25.4019 11.0219 25.4019 10.9686 25.4551 10.9686C25.5084 10.8089 25.6148 10.6493 25.7213 10.5428C25.7745 10.4896 25.881 10.3831 25.9342 10.3299C25.9874 10.2767 26.2536 10.2234 26.2004 10.0637C26.1471 9.95728 26.0407 9.85082 25.9342 9.90405C25.881 9.95728 25.8278 10.0637 25.7745 10.117C25.7213 10.2234 25.6148 10.3299 25.5084 10.4363C25.4019 10.5428 25.2422 10.6493 25.0825 10.7025C24.9229 10.596 24.7632 10.4896 24.6035 10.4363C24.6035 10.3831 24.6035 10.3299 24.6035 10.2767C24.6035 10.117 24.6567 10.0105 24.7632 9.90405C24.9229 9.79759 24.7099 9.6379 24.6035 9.69113C24.497 9.69113 24.5503 9.90405 24.5503 9.95728C24.5503 10.117 24.497 10.2234 24.3906 10.3299C24.3373 10.3831 24.2309 10.3831 24.1776 10.2767C24.1244 10.0637 24.1244 9.79759 24.1244 9.6379C24.1244 9.53145 24.1776 9.37176 24.1776 9.2653C24.2309 9.21207 24.2309 9.10561 24.2309 9.05238C24.2309 8.99915 24.1776 8.99915 24.1776 8.99915C24.0712 8.94592 23.9647 8.99915 23.9115 9.10561C23.9115 9.15884 23.9115 9.2653 23.9115 9.31853C23.9647 9.47822 23.9115 9.69113 23.9115 9.90405C23.8583 10.0637 23.8583 10.3299 23.6986 10.4363C23.6454 10.4363 23.5921 10.4363 23.5389 10.4896C23.2195 10.4896 23.0598 9.90405 23.1131 9.6379C23.1131 9.58467 23.0598 9.47822 23.0598 9.47822C23.0066 9.47822 22.9001 9.47822 22.8469 9.53145C22.8469 9.53145 22.8469 9.6379 22.8469 9.69113C23.1663 10.0637 23.1663 10.7025 22.634 10.8089C22.4743 10.8622 22.2614 10.8089 22.1017 10.7025C22.0485 10.6493 21.942 10.596 21.8888 10.5428C21.8356 10.4896 21.7291 10.2767 21.6226 10.3831C21.4097 10.4896 21.5694 10.6493 21.7291 10.7025C21.8356 10.7025 21.942 10.7557 21.9952 10.8089C22.1549 10.9154 22.3146 11.0751 22.4211 11.1816C22.4211 11.1816 22.4743 11.2348 22.4743 11.288C22.4743 11.288 22.4743 11.3412 22.4211 11.3412C22.4211 11.3412 22.3679 11.3412 22.3146 11.3412C22.1017 11.3412 21.942 11.288 21.7823 11.288C21.6759 11.288 21.5162 11.2348 21.463 11.1816C21.3565 11.1283 21.25 10.9686 21.1436 11.0219C21.0371 11.0219 20.9307 11.1816 20.9307 11.288C20.9307 11.3945 20.9839 11.4477 21.1436 11.4477C21.25 11.4477 21.4097 11.4477 21.5162 11.4477C21.6226 11.4477 21.7823 11.5009 21.8888 11.5542C22.0485 11.6074 22.1549 11.6606 22.3146 11.7671C22.3146 11.8735 22.2614 11.9268 22.2614 12.0332C22.2082 12.0864 22.1017 12.1397 22.0485 12.1929C21.7823 12.2994 21.5162 12.4058 21.25 12.2994C21.1436 12.2461 21.0371 12.4058 21.0904 12.5123C21.1436 12.6187 21.25 12.672 21.3565 12.5655C21.5162 12.4591 21.6759 12.4058 21.8888 12.4058C21.9952 12.4058 22.1017 12.4058 22.1549 12.4058C22.2082 12.4058 22.2082 12.4058 22.2614 12.4058C22.2614 12.5123 22.3146 12.5655 22.3146 12.672C22.2082 12.7252 22.1017 12.7784 21.9952 12.8317C21.8888 12.8317 21.8356 12.8849 21.7291 12.8849C21.6759 12.8849 21.5694 12.8849 21.5162 12.8849C21.463 12.8849 21.4097 12.8849 21.3565 12.9381C21.3033 12.9913 21.3033 13.0978 21.3565 13.151V13.2043C21.4097 13.2575 21.463 13.3639 21.5162 13.3639C21.5694 13.3639 21.6226 13.3107 21.6226 13.2575C21.6759 13.2043 21.7291 13.151 21.7823 13.151C21.8888 13.0446 22.1549 12.8849 22.3679 12.8849C22.4211 12.9913 22.4743 13.0978 22.5808 13.2043C22.5808 13.2575 22.5275 13.2575 22.5275 13.3107C22.4211 13.4704 22.3679 13.6301 22.2614 13.7366C22.2082 13.7898 22.1017 13.8962 22.0485 13.8962C21.9952 13.9495 21.6759 14.0027 21.7823 14.1624C21.8356 14.2688 21.942 14.3753 22.0485 14.3221C22.1017 14.2688 22.1549 14.1624 22.2082 14.1092C22.2614 14.0027 22.3679 13.8962 22.4743 13.7898C22.5808 13.6833 22.7405 13.5769 22.9001 13.5236C23.0598 13.6301 23.1663 13.7366 23.3792 13.7898C23.3792 13.843 23.3792 13.8962 23.3792 13.9495C23.3792 14.1092 23.326 14.2156 23.1663 14.3221C23.0066 14.4285 23.2195 14.5882 23.326 14.535C23.4324 14.535 23.4324 14.3221 23.4324 14.2688C23.4324 14.1092 23.4857 14.0027 23.5921 13.8962C23.6454 13.843 23.7518 13.843 23.805 13.9495C23.8583 14.1624 23.8583 14.4285 23.805 14.5882C23.805 14.6947 23.7518 14.8544 23.6986 14.9608C23.6454 15.0141 23.5921 15.1205 23.6454 15.1737C23.6454 15.227 23.6986 15.227 23.6986 15.227C23.805 15.2802 23.9115 15.227 23.9647 15.1205C23.9647 15.0673 23.9647 14.9608 23.9647 14.9076C23.9115 14.7479 23.9647 14.535 24.018 14.3221C24.0712 14.1624 24.0712 13.8962 24.2309 13.7898C24.2841 13.7898 24.3373 13.7898 24.3906 13.7366C24.7099 13.7898 24.8164 14.3221 24.7632 14.5882C24.7632 14.6415 24.8164 14.7479 24.8164 14.7479C24.8696 14.7479 24.9761 14.7479 25.0293 14.6947C25.0825 14.6947 25.0825 14.5882 25.0293 14.535C24.8696 14.3221 24.8164 14.1092 24.8696 13.843C24.8696 13.7366 24.9229 13.6301 24.9229 13.5769C25.0825 13.2575 25.5616 13.2043 25.9342 13.3639C25.9874 13.4172 26.0939 13.4704 26.1471 13.5236C26.2004 13.5769 26.3068 13.7898 26.4133 13.6833C26.6262 13.5769 26.4665 13.4172 26.3068 13.3639C26.2004 13.3639 26.0939 13.3107 26.0407 13.2575C25.881 13.151 25.7213 12.9913 25.5616 12.8849V12.8317C25.5616 12.7784 25.6148 12.7252 25.6148 12.672H25.6681C25.881 12.672 26.0407 12.672 26.2004 12.7252C26.3068 12.7252 26.4665 12.7784 26.5197 12.8317C26.6262 12.8849 26.7326 12.9913 26.8391 12.9913C26.9456 13.0978 27.052 12.9913 27.052 12.8849Z" fill="black"/>
<path d="M27.052 24.5956C27.052 24.4891 26.9456 24.4359 26.8391 24.4359C26.7326 24.4359 26.573 24.4891 26.4665 24.4359C26.36 24.4359 26.2004 24.3827 26.0939 24.3827C25.9342 24.3294 25.8278 24.3294 25.6681 24.223C25.6681 24.1165 25.7213 24.0101 25.7213 23.9036C25.7745 23.8504 25.8278 23.7971 25.881 23.7971C26.0939 23.6907 26.36 23.5842 26.6794 23.6375C26.7859 23.6907 26.8923 23.531 26.8391 23.4245C26.7859 23.3181 26.6794 23.2648 26.573 23.3713C26.4133 23.4778 26.2536 23.531 26.0939 23.531C25.9874 23.531 25.881 23.531 25.8278 23.531H25.7745C25.7745 23.4245 25.7213 23.3181 25.7213 23.2649C25.8278 23.2116 25.881 23.1584 25.9874 23.1052C26.0407 23.1052 26.1471 23.0519 26.2536 23.0519C26.3068 23.0519 26.4133 23.0519 26.4665 23.0519C26.5197 23.0519 26.573 23.0519 26.6262 22.9987C26.6794 22.9455 26.6794 22.839 26.6262 22.7858V22.7326C26.573 22.6793 26.5197 22.5729 26.4665 22.5729C26.4133 22.5729 26.36 22.6261 26.36 22.6793C26.3068 22.7326 26.2536 22.7858 26.2004 22.839C26.0939 22.9455 25.881 23.1052 25.6681 23.1052C25.6148 22.9987 25.5084 22.839 25.4019 22.7326C25.4019 22.7326 25.4019 22.6793 25.4551 22.6793C25.5084 22.5196 25.6148 22.36 25.7213 22.2535C25.7745 22.2003 25.881 22.0938 25.9342 22.0406C25.9874 21.9873 26.2536 21.9341 26.2004 21.7744C26.1471 21.668 26.0407 21.5615 25.9342 21.6147C25.881 21.668 25.8278 21.7744 25.7745 21.8277C25.7213 21.9341 25.6148 22.0406 25.5084 22.147C25.4019 22.2535 25.2422 22.36 25.0825 22.4132C24.9229 22.3067 24.7632 22.2003 24.6035 22.147C24.6035 22.0938 24.6035 22.0406 24.6035 21.9873C24.6035 21.8277 24.6567 21.7212 24.7632 21.6147C24.9229 21.5083 24.7099 21.3486 24.6035 21.4018C24.497 21.4018 24.5503 21.6147 24.5503 21.668C24.5503 21.8277 24.497 21.9341 24.3906 22.0406C24.3373 22.0938 24.2309 22.0938 24.1776 21.9873C24.1244 21.7744 24.1244 21.5083 24.1244 21.3486C24.1244 21.2421 24.1776 21.0825 24.1776 20.976C24.2309 20.9228 24.2309 20.8163 24.2309 20.7631C24.2309 20.7098 24.1776 20.7098 24.1776 20.7098C24.0712 20.6566 23.9647 20.7098 23.9115 20.8163C23.9115 20.8695 23.9115 20.976 23.9115 21.0292C23.9647 21.1889 23.9115 21.4018 23.9115 21.6147C23.8583 21.7744 23.8583 22.0406 23.6986 22.147C23.6454 22.147 23.5921 22.147 23.5389 22.2003C23.2195 22.2003 23.0598 21.6147 23.1131 21.3486C23.1131 21.2954 23.0598 21.1889 23.0598 21.1889C23.0066 21.1889 22.9001 21.1889 22.8469 21.2421C22.8469 21.2421 22.8469 21.3486 22.8469 21.4018C23.1663 21.7744 23.1663 22.4132 22.634 22.5196C22.4743 22.5729 22.2614 22.5196 22.1017 22.4132C22.0485 22.36 21.942 22.3067 21.8888 22.2535C21.8356 22.2003 21.7291 21.9873 21.6226 22.0938C21.4097 22.2003 21.5694 22.36 21.7291 22.4132C21.8356 22.4132 21.942 22.4664 21.9952 22.5196C22.1549 22.6261 22.3146 22.7858 22.4211 22.8922C22.4211 22.8922 22.4743 22.9455 22.4743 22.9987C22.4743 22.9987 22.4743 23.0519 22.4211 23.0519C22.4211 23.0519 22.3679 23.0519 22.3146 23.0519C22.1017 23.0519 21.942 22.9987 21.7823 22.9987C21.6759 22.9987 21.5162 22.9455 21.463 22.8922C21.3565 22.839 21.25 22.6793 21.1436 22.7326C21.0371 22.7326 20.9307 22.8922 20.9307 22.9987C20.9307 23.1052 20.9839 23.1584 21.1436 23.1584C21.25 23.1584 21.4097 23.1584 21.5162 23.1584C21.6226 23.1584 21.7823 23.2116 21.8888 23.2649C22.0485 23.3181 22.1549 23.3713 22.3146 23.4778C22.3146 23.5842 22.2614 23.6375 22.2614 23.7439C22.2082 23.7971 22.1017 23.8504 22.0485 23.9036C21.7823 24.0101 21.5162 24.1165 21.25 24.0101C21.1436 23.9568 21.0371 24.1165 21.0904 24.223C21.1436 24.3294 21.25 24.3827 21.3565 24.2762C21.5162 24.1697 21.6759 24.1165 21.8888 24.1165C21.9952 24.1165 22.1017 24.1165 22.1549 24.1165C22.2082 24.1165 22.2082 24.1165 22.2614 24.1165C22.2614 24.223 22.3146 24.2762 22.3146 24.3827C22.2082 24.4359 22.1017 24.4891 21.9952 24.5424C21.8888 24.5424 21.8356 24.5956 21.7291 24.5956C21.6759 24.5956 21.5694 24.5956 21.5162 24.5956C21.463 24.5956 21.4097 24.5956 21.3565 24.6488C21.3033 24.702 21.3033 24.8085 21.3565 24.8617V24.915C21.4097 24.9682 21.463 25.0746 21.5162 25.0746C21.5694 25.0746 21.6226 25.0214 21.6226 24.9682C21.6759 24.915 21.7291 24.8617 21.7823 24.8617C21.8888 24.7553 22.1549 24.5956 22.3679 24.5956C22.4211 24.702 22.4743 24.8085 22.5808 24.915C22.5808 24.9682 22.5275 24.9682 22.5275 25.0214C22.4211 25.1811 22.3679 25.3408 22.2614 25.4472C22.2082 25.5005 22.1017 25.6069 22.0485 25.6069C21.9952 25.6602 21.6759 25.7134 21.7823 25.8731C21.8356 25.9795 21.942 26.086 22.0485 26.0328C22.1017 25.9795 22.1549 25.8731 22.2082 25.8199C22.2614 25.7134 22.3679 25.6069 22.4743 25.5005C22.5808 25.394 22.7405 25.2876 22.9001 25.2343C23.0598 25.3408 23.1663 25.4472 23.3792 25.5005C23.3792 25.5537 23.3792 25.6069 23.3792 25.6602C23.3792 25.8199 23.326 25.9263 23.1663 26.0328C23.0066 26.1392 23.2195 26.2989 23.326 26.2457C23.4324 26.2457 23.4324 26.0328 23.4324 25.9795C23.4324 25.8199 23.4857 25.7134 23.5921 25.6069C23.6454 25.5537 23.7518 25.5537 23.805 25.6602C23.8583 25.8731 23.8583 26.1392 23.805 26.2989C23.805 26.4054 23.7518 26.5651 23.6986 26.6715C23.6454 26.7248 23.5921 26.8312 23.6454 26.8844C23.6454 26.9377 23.6986 26.9377 23.6986 26.9377C23.805 26.9909 23.9115 26.9377 23.9647 26.8312C23.9647 26.778 23.9647 26.6715 23.9647 26.6183C23.9115 26.4586 23.9647 26.2457 24.018 26.0328C24.0712 25.8731 24.0712 25.6069 24.2309 25.5005C24.2841 25.5005 24.3373 25.5005 24.3906 25.4472C24.7099 25.5005 24.8164 26.0328 24.7632 26.2989C24.7632 26.3521 24.8164 26.4586 24.8164 26.4586C24.8696 26.4586 24.9761 26.4586 25.0293 26.4054C25.0825 26.4054 25.0825 26.2989 25.0293 26.2457C24.8696 26.0328 24.8164 25.8199 24.8696 25.5537C24.8696 25.4472 24.9229 25.3408 24.9229 25.2876C25.0825 24.9682 25.5616 24.915 25.9342 25.0746C25.9874 25.1279 26.0939 25.1811 26.1471 25.2343C26.2004 25.2876 26.3068 25.5005 26.4133 25.394C26.6262 25.2876 26.4665 25.1279 26.3068 25.0746C26.2004 25.0746 26.0939 25.0214 26.0407 24.9682C25.881 24.8617 25.7213 24.702 25.5616 24.5956V24.5424C25.5616 24.4891 25.6148 24.4359 25.6148 24.3827H25.6681C25.881 24.3827 26.0407 24.3827 26.2004 24.4359C26.3068 24.4359 26.4665 24.4891 26.5197 24.5424C26.6262 24.5956 26.7326 24.702 26.8391 24.702C26.9456 24.8085 27.052 24.702 27.052 24.5956Z" fill="black"/>
<path d="M9.85892 26.9908C9.48631 26.4052 9.06048 25.873 8.68787 25.2874C8.52819 25.0745 8.42173 24.9148 8.26204 24.6487C7.78298 25.3939 7.30391 26.1391 6.87808 26.8843C6.77162 27.044 6.71839 27.1505 6.61193 27.3101C6.39902 27.6827 6.39902 28.1086 6.50547 28.4812C6.50547 28.4812 6.50547 28.4812 6.50547 28.5344C6.71839 29.3329 7.25068 29.8119 8.10235 29.9184C8.42173 29.9716 8.7411 29.9184 9.00725 29.8119C9.37985 29.7055 9.69923 29.4393 9.96537 29.0135C10.0718 28.8538 10.1251 28.7473 10.1783 28.5876C10.2848 28.1086 10.1783 27.5231 9.85892 26.9908Z" fill="black"/>
<path d="M14.5425 24.3826C14.1699 23.7971 13.7441 23.2648 13.3715 22.6793C13.2118 22.4664 13.1053 22.3067 12.9456 22.0405C12.4666 22.7857 11.9875 23.5309 11.5617 24.2762C11.4552 24.4358 11.402 24.5423 11.2955 24.702C11.0826 25.0746 11.0826 25.5004 11.1891 25.873C11.1891 25.873 11.1891 25.873 11.1891 25.9263C11.402 26.7247 11.9343 27.2038 12.7859 27.3102C13.1053 27.3635 13.4247 27.3102 13.6908 27.2038C14.0634 27.0973 14.3828 26.8312 14.649 26.4053C14.7554 26.2456 14.8087 26.1392 14.8619 25.9795C14.9683 25.4472 14.9151 24.9149 14.5425 24.3826Z" fill="black"/>
</g>
</svg>
