<svg width="42" height="44" viewBox="0 0 42 44" fill="none" xmlns="http://www.w3.org/2000/svg">
<path fill-rule="evenodd" clip-rule="evenodd" d="M17.6465 2.90115C20.6889 1.14459 24.4374 1.14459 27.4798 2.90115L36.5371 8.13036C39.5795 9.88692 41.4538 13.1332 41.4538 16.6463V27.1047C41.4538 30.6178 39.5795 33.8641 36.5371 35.6207L27.4798 40.8499C24.4374 42.6064 20.6889 42.6064 17.6465 40.8499L8.58919 35.6207C5.54674 33.8641 3.67251 30.6178 3.67251 27.1047V16.6463C3.67251 13.1332 5.54674 9.88692 8.58919 8.13036L17.6465 2.90115Z" fill="#40C9BB"/>
<g clip-path="url(#clip0)">
<path d="M24.7093 19.5989L21.5524 25.3096L18.5595 19.6065C14.9129 20.8297 12.2027 24.1587 11.8127 28.1855C13.7687 31.2712 17.4397 32.5124 21.646 32.5124C25.8522 32.5124 29.5233 31.2712 31.4794 28.1857C31.0884 24.15 28.3675 20.8156 24.7093 19.5989ZM27.7974 26.9796H26.817V27.9801H25.9814V26.9796H25.001V26.1266H25.9814V25.1259H26.817V26.1266H27.7974V26.9796Z" fill="white"/>
<path d="M21.6461 19.5991C24.2712 19.5991 26.3992 17.427 26.3992 14.7474C26.3992 12.0679 24.2712 9.89575 21.6461 9.89575C19.0211 9.89575 16.8931 12.0679 16.8931 14.7474C16.8931 17.427 19.0211 19.5991 21.6461 19.5991Z" fill="white"/>
</g>
<defs>
<clipPath id="clip0">
<rect width="19.6667" height="28.2709" fill="white" transform="translate(11.8126 9.89575)"/>
</clipPath>
</defs>
</svg>
