<svg width="22" height="20" viewBox="0 0 22 20" fill="none" xmlns="http://www.w3.org/2000/svg">
<path fill-rule="evenodd" clip-rule="evenodd" d="M17.0421 4.93758C18.2592 4.93758 19.2458 3.83226 19.2458 2.46879C19.2458 1.10531 18.2592 0 17.0421 0C15.825 0 14.8384 1.10531 14.8384 2.46879C14.8384 3.83226 15.825 4.93758 17.0421 4.93758ZM6.73071 10.0287C8.52733 10.0287 9.98377 8.39702 9.98377 6.38427C9.98377 4.37152 8.52733 2.73987 6.73071 2.73987C4.93409 2.73987 3.47765 4.37152 3.47765 6.38427C3.47765 8.39702 4.93409 10.0287 6.73071 10.0287ZM8.82666 10.0283L6.66603 14.318L4.61766 10.0341C2.12187 10.9529 0.266916 13.4535 0 16.4783C1.33875 18.7961 3.85123 19.7285 6.7301 19.7285C9.60884 19.7285 12.1215 18.7961 13.4602 16.4784C13.1926 13.447 11.3304 10.9423 8.82666 10.0283ZM10.9402 15.5725H10.2692V16.324H9.69727V15.5725H9.02628V14.9317H9.69727V14.18H10.2692V14.9317H10.9402V15.5725ZM16.9991 7.8435L18.4627 4.93761C20.1588 5.55674 21.4203 7.25347 21.6016 9.30702C20.6947 10.8771 18.9926 11.5087 17.0425 11.5087C15.0923 11.5087 13.3903 10.8771 12.4834 9.30692C12.6642 7.25787 13.9207 5.56389 15.6114 4.94149L16.9991 7.8435ZM19.4399 8.69329H19.8944V8.25925H19.4399V7.75003H19.0525V8.25925H18.5979V8.69329H19.0525V9.20242H19.4399V8.69329ZM16.3616 12.3982C16.5037 12.258 16.7104 12.3456 16.7621 12.5734L17.4596 15.3418C17.5371 15.6222 17.3434 15.885 17.1367 15.7974L16.6329 15.5871C16.2066 17.1466 15.0181 18.0402 13.8168 17.7598C13.7263 17.7423 13.7005 17.5496 13.778 17.4795C14.4239 16.9012 14.9277 16.0602 15.199 15.0089L14.7081 14.7986C14.5014 14.711 14.4627 14.3431 14.6306 14.1679L16.3616 12.3982Z" fill="#79828B"/>
</svg>
