<svg width="26" height="25" viewBox="0 0 26 25" fill="none" xmlns="http://www.w3.org/2000/svg">
<path fill-rule="evenodd" clip-rule="evenodd" d="M0 10.2944C0 4.61821 4.91116 0 10.9474 0C16.9839 0 21.8948 4.61821 21.8948 10.2944C21.8948 15.9709 16.9839 20.5888 10.9474 20.5888C4.91116 20.5888 0 15.9709 0 10.2944ZM2.02086 10.2943C2.02086 14.9226 6.02524 18.6882 10.9472 18.6882C15.8691 18.6882 19.8735 14.9226 19.8735 10.2942C19.8735 5.66588 15.8691 1.90036 10.9472 1.90036C6.02524 1.90036 2.02086 5.66593 2.02086 10.2943Z" fill="#673D86"/>
<path d="M25.6889 22.7448L19.6018 17.0208C19.1871 16.6308 18.5153 16.6308 18.1006 17.0208C17.6858 17.4105 17.6858 18.0428 18.1006 18.4325L24.1877 24.1565C24.395 24.3515 24.6665 24.4491 24.9383 24.4491C25.2097 24.4491 25.4815 24.3515 25.6889 24.1565C26.1037 23.7668 26.1037 23.1345 25.6889 22.7448Z" fill="#673D86"/>
</svg>
