<svg width="18" height="23" viewBox="0 0 18 23" fill="none" xmlns="http://www.w3.org/2000/svg">
<path d="M17.4375 5.0625C16.1202 4.96636 14.8734 4.43006 13.8977 3.53981L13.7329 3.375H12.0274L11.8716 3.68606C11.6546 4.15439 11.334 4.56725 10.9339 4.89342C10.5339 5.21959 10.0649 5.45052 9.5625 5.56875V3.9375H8.4375V5.56875C7.93558 5.45013 7.46718 5.21903 7.06766 4.89288C6.66814 4.56673 6.34794 4.15407 6.13125 3.68606L5.97262 3.375H4.26713L4.10231 3.53981C3.12658 4.43006 1.87983 4.96636 0.5625 5.0625H0V6.42037L0.164813 6.58519C0.890438 7.3125 3.04087 9 7.3125 9V7.875C4.02694 7.875 2.15662 6.77587 1.33594 6.12225C2.58738 5.88512 3.75543 5.326 4.725 4.5H5.29313C5.61338 5.08438 6.06334 5.58756 6.60843 5.97089C7.15353 6.35421 7.77924 6.60746 8.4375 6.71119V13.6401L8.10956 13.5067C6.88837 13.0095 5.625 12.4965 5.625 11.8125C5.625 10.9226 6.72862 10.6875 7.3125 10.6875V9.5625C5.91469 9.5625 4.5 10.3354 4.5 11.8125C4.5 13.2536 6.11944 13.9118 7.686 14.5485H7.69162C6.82425 15.1009 6.1875 15.8158 6.1875 16.875C6.1875 18.2143 7.00144 18.9326 7.89919 19.4878C7.37229 19.7929 6.93606 20.2327 6.63525 20.762C6.33445 21.2914 6.17991 21.8912 6.1875 22.5H7.3125C7.30544 22.0947 7.40581 21.6948 7.60341 21.3409C7.80101 20.987 8.08879 20.6917 8.4375 20.4851V22.5H9.5625V20.4851C9.91121 20.6917 10.199 20.987 10.3966 21.3409C10.5942 21.6948 10.6946 22.0947 10.6875 22.5H11.8125C11.8201 21.8912 11.6656 21.2914 11.3647 20.762C11.0639 20.2327 10.6277 19.7929 10.1008 19.4878C10.9986 18.9326 11.8125 18.2143 11.8125 16.875C11.8125 15.8158 11.1758 15.1009 10.3084 14.5507H10.314C11.8806 13.9117 13.5 13.2536 13.5 11.8125C13.5 10.3354 12.0853 9.5625 10.6875 9.5625V10.6875C11.2714 10.6875 12.375 10.9226 12.375 11.8125C12.375 12.4965 11.1116 13.0095 9.89044 13.5067L9.5625 13.6401V6.71119C10.2218 6.60827 10.8486 6.35539 11.3947 5.97203C11.9408 5.58867 12.3917 5.08506 12.7125 4.5H13.2806C14.2494 5.32556 15.4164 5.88465 16.6669 6.12225C15.8434 6.77587 13.9731 7.875 10.6875 7.875V9C14.9591 9 17.1096 7.3125 17.8352 6.58519L18 6.42037V5.0625H17.4375ZM7.3125 16.875C7.3125 16.2664 7.776 15.8062 8.4375 15.4125V18.4972C7.72931 18.0506 7.3125 17.622 7.3125 16.875ZM9.5625 18.4978V15.4125C10.224 15.8062 10.6875 16.2658 10.6875 16.875C10.6875 17.622 10.2707 18.0506 9.5625 18.4978Z" fill="#79828B"/>
<path d="M9 3.375C9.33376 3.375 9.66002 3.27603 9.93752 3.09061C10.215 2.90518 10.4313 2.64163 10.559 2.33328C10.6868 2.02493 10.7202 1.68563 10.6551 1.35829C10.59 1.03094 10.4292 0.730259 10.1932 0.494258C9.95724 0.258257 9.65656 0.0975382 9.32922 0.0324256C9.00187 -0.032687 8.66257 0.00073117 8.35422 0.128454C8.04587 0.256177 7.78232 0.472468 7.59689 0.749976C7.41147 1.02748 7.3125 1.35374 7.3125 1.6875C7.3125 2.13505 7.49029 2.56428 7.80676 2.88074C8.12322 3.19721 8.55245 3.375 9 3.375ZM9 1.125C9.11125 1.125 9.22001 1.15799 9.31251 1.2198C9.40501 1.28161 9.47711 1.36946 9.51968 1.47224C9.56226 1.57502 9.5734 1.68812 9.55169 1.79724C9.52999 1.90635 9.47641 2.00658 9.39775 2.08525C9.31908 2.16392 9.21885 2.21749 9.10974 2.23919C9.00062 2.2609 8.88752 2.24976 8.78474 2.20718C8.68196 2.16461 8.59411 2.09251 8.5323 2.00001C8.47049 1.90751 8.4375 1.79875 8.4375 1.6875C8.4375 1.53832 8.49676 1.39524 8.60225 1.28975C8.70774 1.18426 8.85082 1.125 9 1.125Z" fill="#79828B"/>
</svg>
