<svg width="25" height="32" viewBox="0 0 25 32" fill="none" xmlns="http://www.w3.org/2000/svg">
<path d="M24.2188 7.03125C22.3891 6.89773 20.6575 6.15287 19.3023 4.91641L19.0734 4.6875H16.7047L16.4883 5.11953C16.1869 5.76999 15.7416 6.34341 15.186 6.79642C14.6304 7.24943 13.9791 7.57016 13.2812 7.73437V5.46875H11.7188V7.73437C11.0216 7.56963 10.3711 7.24865 9.81619 6.79567C9.2613 6.34269 8.81658 5.76955 8.51562 5.11953L8.29531 4.6875H5.92656L5.69766 4.91641C4.34247 6.15287 2.61088 6.89773 0.78125 7.03125H0V8.91719L0.228906 9.14609C1.23672 10.1562 4.22344 12.5 10.1562 12.5V10.9375C5.59297 10.9375 2.99531 9.41094 1.85547 8.50312C3.59358 8.17377 5.21588 7.39722 6.5625 6.25H7.35156C7.79636 7.06164 8.4213 7.76051 9.17838 8.2929C9.93545 8.82529 10.8045 9.17703 11.7188 9.32109V18.9445L11.2633 18.7594C9.56719 18.0687 7.8125 17.3562 7.8125 16.4062C7.8125 15.1703 9.34531 14.8438 10.1562 14.8438V13.2812C8.21484 13.2812 6.25 14.3547 6.25 16.4062C6.25 18.4078 8.49922 19.3219 10.675 20.2063H10.6828C9.47812 20.9734 8.59375 21.9664 8.59375 23.4375C8.59375 25.2977 9.72422 26.2953 10.9711 27.0664C10.2393 27.4901 9.63341 28.1009 9.21563 28.8361C8.79785 29.5713 8.58321 30.4045 8.59375 31.25H10.1562C10.1464 30.6871 10.2858 30.1317 10.5603 29.6402C10.8347 29.1486 11.2344 28.7385 11.7188 28.4516V31.25H13.2812V28.4516C13.7656 28.7385 14.1653 29.1486 14.4397 29.6402C14.7142 30.1317 14.8536 30.6871 14.8438 31.25H16.4062C16.4168 30.4045 16.2022 29.5713 15.7844 28.8361C15.3666 28.1009 14.7607 27.4901 14.0289 27.0664C15.2758 26.2953 16.4062 25.2977 16.4062 23.4375C16.4062 21.9664 15.5219 20.9734 14.3172 20.2094H14.325C16.5008 19.3219 18.75 18.4078 18.75 16.4062C18.75 14.3547 16.7852 13.2812 14.8438 13.2812V14.8438C15.6547 14.8438 17.1875 15.1703 17.1875 16.4062C17.1875 17.3562 15.4328 18.0687 13.7367 18.7594L13.2812 18.9445V9.32109C14.1969 9.17815 15.0675 8.82693 15.826 8.29448C16.5845 7.76204 17.2107 7.06258 17.6562 6.25H18.4453C19.7908 7.39661 21.4117 8.17313 23.1484 8.50312C22.0047 9.41094 19.407 10.9375 14.8438 10.9375V12.5C20.7766 12.5 23.7633 10.1562 24.7711 9.14609L25 8.91719V7.03125H24.2188ZM10.1562 23.4375C10.1562 22.5922 10.8 21.9531 11.7188 21.4062V25.6906C10.7352 25.0703 10.1562 24.475 10.1562 23.4375ZM13.2812 25.6914V21.4062C14.2 21.9531 14.8438 22.5914 14.8438 23.4375C14.8438 24.475 14.2648 25.0703 13.2812 25.6914Z" fill="#333333"/>
<path d="M12.5 4.6875C12.9636 4.6875 13.4167 4.55004 13.8021 4.29251C14.1875 4.03497 14.488 3.66893 14.6653 3.24066C14.8427 2.8124 14.8892 2.34115 14.7987 1.88651C14.7083 1.43186 14.4851 1.01425 14.1573 0.686469C13.8295 0.35869 13.4119 0.13547 12.9572 0.0450355C12.5026 -0.0453986 12.0314 0.00101551 11.6031 0.178408C11.1748 0.355801 10.8088 0.656205 10.5512 1.04163C10.2937 1.42706 10.1562 1.8802 10.1562 2.34375C10.1563 2.96535 10.4032 3.56149 10.8427 4.00103C11.2823 4.44057 11.8784 4.6875 12.5 4.6875ZM12.5 1.5625C12.6545 1.5625 12.8056 1.60832 12.934 1.69417C13.0625 1.78001 13.1627 1.90202 13.2218 2.04478C13.2809 2.18753 13.2964 2.34462 13.2662 2.49617C13.2361 2.64771 13.1617 2.78692 13.0524 2.89618C12.9432 3.00544 12.804 3.07984 12.6524 3.10999C12.5009 3.14013 12.3438 3.12466 12.201 3.06553C12.0583 3.0064 11.9363 2.90627 11.8504 2.77779C11.7646 2.64931 11.7188 2.49827 11.7188 2.34375C11.7188 2.13655 11.8011 1.93784 11.9476 1.79132C12.0941 1.64481 12.2928 1.5625 12.5 1.5625Z" fill="#333333"/>
</svg>
