<svg width="217" height="95" viewBox="0 0 217 95" fill="none" xmlns="http://www.w3.org/2000/svg">
<path d="M17.7734 13.0369H18.2282L21.4978 3.90415H21.0184L18.007 12.3977L15.0078 3.90415H14.5038L17.7734 13.0369ZM23.1043 4.88748H23.6329V4.23602H23.1043V4.88748ZM23.1412 13H23.596V6.54686H23.1412V13ZM28.0964 13.1352C29.3132 13.1352 30.0876 12.4223 30.6162 11.5496L30.2843 11.3283C29.768 12.1396 29.1289 12.7296 28.1087 12.7296C26.7689 12.7296 25.8716 11.4758 25.8716 9.82874V9.75499H30.6408C30.6408 9.75499 30.6408 9.71812 30.6408 9.69353C30.6408 7.60395 29.5714 6.41165 28.121 6.41165C26.7812 6.41165 25.4168 7.50561 25.4168 9.77958C25.4168 11.7094 26.523 13.1352 28.0964 13.1352ZM25.8839 9.37395C26.0191 7.65311 27.0639 6.81728 28.121 6.81728C29.3255 6.81728 30.0876 7.8252 30.1737 9.37395H25.8839ZM33.8297 13.0246H34.2599L35.9316 7.17374L37.677 13.0246H38.1073L40.0616 6.54686H39.6068L37.9106 12.3608L36.1652 6.54686H35.6981L34.0387 12.3608L32.2564 6.54686H31.7893L33.8297 13.0246ZM44.2248 13H44.6796V8.08332C45.4417 7.34582 46.2283 6.81728 47.1256 6.81728C48.1459 6.81728 48.5761 7.34582 48.5761 8.4152V13H49.0309V8.42749C49.0309 8.35374 49.0309 8.15707 49.0186 8.09561C49.7929 7.34582 50.5919 6.81728 51.4769 6.81728C52.4971 6.81728 52.9396 7.34582 52.9396 8.4152V13H53.3821V8.37832C53.3821 7.14915 52.8167 6.41165 51.5138 6.41165C50.555 6.41165 49.6946 7.02624 48.9571 7.6777C48.7727 6.91561 48.2196 6.41165 47.1625 6.41165C46.1546 6.41165 45.2819 7.08769 44.6796 7.64082V6.54686H44.2248V13ZM57.8749 13.1352C59.4113 13.1352 60.6774 11.7954 60.6774 9.77958C60.6774 7.72686 59.4113 6.41165 57.8749 6.41165C56.3261 6.41165 55.0724 7.72686 55.0724 9.77958C55.0724 11.7954 56.3384 13.1352 57.8749 13.1352ZM57.8749 12.7296C56.4613 12.7296 55.5272 11.4144 55.5272 9.76728C55.5272 8.05874 56.4982 6.81728 57.8749 6.81728C59.2884 6.81728 60.2349 8.1202 60.2349 9.76728C60.2349 11.4758 59.2516 12.7296 57.8749 12.7296ZM62.4556 13H62.9104V8.61187C63.4881 7.49332 64.3977 6.7804 65.5285 6.84186L65.7375 6.85415L65.8235 6.43624L65.6146 6.42394C64.3731 6.36249 63.525 7.02624 62.9104 7.9727V6.54686H62.4556V13ZM69.5729 13.1352C70.7897 13.1352 71.5641 12.4223 72.0927 11.5496L71.7608 11.3283C71.2445 12.1396 70.6054 12.7296 69.5852 12.7296C68.2454 12.7296 67.3481 11.4758 67.3481 9.82874V9.75499H72.1172C72.1172 9.75499 72.1172 9.71812 72.1172 9.69353C72.1172 7.60395 71.0479 6.41165 69.5974 6.41165C68.2577 6.41165 66.8933 7.50561 66.8933 9.77958C66.8933 11.7094 67.9995 13.1352 69.5729 13.1352ZM67.3604 9.37395C67.4956 7.65311 68.5404 6.81728 69.5974 6.81728C70.802 6.81728 71.5641 7.8252 71.6502 9.37395H67.3604ZM79.5002 13.1721C81.2087 13.1721 82.4993 12.2871 82.4993 10.8121C82.4993 9.3002 81.6881 8.72249 79.7091 8.08332C77.7793 7.45645 77.1156 7.03853 77.1156 5.88311C77.1156 4.96123 77.9268 4.16227 79.3035 4.16227C80.5941 4.16227 81.3931 4.77686 81.811 5.99373L82.2658 5.84623C81.8848 4.64165 80.9629 3.73206 79.3035 3.73206C77.6933 3.73206 76.6362 4.72769 76.6362 5.8954C76.6362 7.30895 77.3737 7.8252 79.4387 8.48895C81.5037 9.1527 82.02 9.68124 82.02 10.8244C82.02 11.9921 81.0366 12.7419 79.5125 12.7419C77.9145 12.7419 77.091 11.9552 76.71 10.6031L76.2429 10.726C76.6485 12.1887 77.6441 13.1721 79.5002 13.1721ZM86.323 13.086C86.5688 13.086 86.8515 13.0492 87.0605 13.0123V12.5821C86.8392 12.6435 86.618 12.6681 86.3722 12.6681C85.524 12.6681 85.2905 12.2625 85.2905 11.5496V6.96478H87.0359V6.54686H85.2905V4.19915H84.8357V6.54686H83.7049V6.96478H84.8357V11.5742C84.8357 12.6067 85.2536 13.086 86.323 13.086ZM90.1327 13.1475C91.2021 13.1475 92.1363 12.5821 92.8123 11.9552C92.8246 12.4346 92.8615 12.7173 92.9598 13H93.4392C93.3163 12.6558 93.2671 12.2994 93.2671 11.4881V8.32916C93.2671 7.16145 92.6648 6.41165 91.3496 6.41165C90.0835 6.41165 89.1985 6.96478 88.5348 7.61624L88.8544 7.88666C89.469 7.32124 90.2065 6.81728 91.3373 6.81728C92.3206 6.81728 92.8123 7.3704 92.8123 8.36603V8.82082C89.6165 9.32478 88.3258 10.1975 88.3258 11.5619C88.3258 12.5575 88.9773 13.1475 90.1327 13.1475ZM90.1573 12.7419C89.2969 12.7419 88.7806 12.324 88.7806 11.5373C88.7806 10.5417 89.6287 9.69353 92.8123 9.17728V11.4881C92.1977 12.1273 91.2144 12.7419 90.1573 12.7419ZM97.2556 13.086C97.5015 13.086 97.7842 13.0492 97.9931 13.0123V12.5821C97.7719 12.6435 97.5506 12.6681 97.3048 12.6681C96.4567 12.6681 96.2231 12.2625 96.2231 11.5496V6.96478H97.9685V6.54686H96.2231V4.19915H95.7683V6.54686H94.6375V6.96478H95.7683V11.5742C95.7683 12.6067 96.1862 13.086 97.2556 13.086ZM101.618 13.1352C103.044 13.1352 104.015 12.4469 104.015 11.3406C104.015 10.1606 103.192 9.76728 101.618 9.33708C100.488 9.04207 99.873 8.74707 99.873 7.96041C99.873 7.3827 100.352 6.81728 101.483 6.81728C102.405 6.81728 102.971 7.16145 103.425 7.6777L103.757 7.3704C103.266 6.84186 102.577 6.41165 101.496 6.41165C100.143 6.41165 99.4182 7.16145 99.4182 7.9727C99.4182 9.0052 100.082 9.38624 101.557 9.77958C102.872 10.1115 103.573 10.4679 103.573 11.3406C103.573 12.201 102.86 12.7296 101.618 12.7296C100.672 12.7296 100.033 12.3117 99.578 11.6848L99.2339 11.9429C99.701 12.619 100.5 13.1352 101.618 13.1352Z" fill="#40C9BB"/>
<path d="M13.9999 14.6348H104.741V14.8806H13.9999V14.6348Z" fill="#40C9BB"/>
<mask id="mask0" mask-type="alpha" maskUnits="userSpaceOnUse" x="4" y="25" width="201" height="54">
<rect x="5.22888" y="25.3962" width="199.125" height="52.8543" rx="26.4271" fill="white" stroke="#DADADA" stroke-opacity="0.37" stroke-width="0.614585"/>
</mask>
<g mask="url(#mask0)">
<path fill-rule="evenodd" clip-rule="evenodd" d="M0.759773 56.1597C0.759773 56.1597 28.1634 64.2339 36.7962 57.2646C45.4289 50.2954 49.6499 42.233 55.7005 45.7781C61.751 49.3232 70.5569 61.8049 79.3309 58.3702C88.1049 54.9356 100.148 43.6612 111.232 46.3985C122.316 49.1364 125.563 56.7832 133.681 53.9485C141.799 51.1137 146.844 28.8721 159.084 33.3695C171.323 37.867 176.525 48.9267 185.668 48.9745C194.811 49.0217 191.275 60.5597 200.437 56.9457C209.598 53.3318 217.936 51.1615 222.886 64.4498C227.836 77.7387 223.476 100.376 223.476 100.376L-3.37555 95.401L0.759773 56.1597Z" fill="url(#paint0_linear)" stroke="#40C9BB" stroke-width="2.45834"/>
<rect x="150.885" y="27.2397" width="15.9792" height="15.9792" rx="7.9896" fill="#40C9BB" stroke="white" stroke-width="3.68751"/>
</g>
<defs>
<linearGradient id="paint0_linear" x1="-258.714" y1="-147.296" x2="-258.714" y2="71.3154" gradientUnits="userSpaceOnUse">
<stop stop-color="#673D86"/>
<stop offset="1" stop-color="#00FFF0" stop-opacity="0.01"/>
</linearGradient>
</defs>
</svg>
