<svg width="49" height="52" viewBox="0 0 49 52" fill="none" xmlns="http://www.w3.org/2000/svg">
<path fill-rule="evenodd" clip-rule="evenodd" d="M22 2.3094C24.4752 0.880338 27.5248 0.880339 30 2.3094L44.5167 10.6906C46.9919 12.1197 48.5167 14.7607 48.5167 17.6188V34.3812C48.5167 37.2393 46.9919 39.8803 44.5167 41.3094L30 49.6906C27.5248 51.1197 24.4752 51.1197 22 49.6906L7.48334 41.3094C5.00813 39.8803 3.48334 37.2393 3.48334 34.3812V17.6188C3.48334 14.7607 5.00813 12.1197 7.48334 10.6906L22 2.3094Z" fill="#40C9BB"/>
<path d="M37.7879 18.644L33.5773 16.1785C33.4111 16.0954 33.2449 16.0954 33.0786 16.1785L28.868 18.644C28.7295 18.7271 28.6187 18.8933 28.6187 19.0595V21.7466L25.1283 19.7243C24.9621 19.6412 24.7959 19.6412 24.6297 19.7243L21.1116 21.7743V19.0872C21.1116 18.921 21.0284 18.7548 20.8622 18.6717L16.6516 16.2062C16.4854 16.1231 16.3192 16.1231 16.153 16.2062L11.97 18.644C11.8315 18.7271 11.7207 18.8933 11.7207 19.0595V34.4616C11.7207 34.7386 11.9423 34.9602 12.2193 34.9602H23.0784C23.3 34.9602 23.4939 34.7663 23.4939 34.5447V31.7191C23.4939 31.4698 23.7155 31.2482 23.9648 31.2482H25.8485C26.0978 31.2482 26.3195 31.4698 26.3195 31.7191V34.5724C26.3195 34.794 26.5134 34.9879 26.735 34.9879H37.594C37.871 34.9879 38.0926 34.7663 38.0926 34.4893V19.0872C38.0372 18.8933 37.9541 18.7271 37.7879 18.644ZM15.6266 32.7995C15.6266 32.9103 15.5435 32.9934 15.4327 32.9934H13.8537C13.7429 32.9934 13.6598 32.9103 13.6598 32.7995V31.2205C13.6598 31.1097 13.7429 31.0266 13.8537 31.0266H15.4327C15.5435 31.0266 15.6266 31.1097 15.6266 31.2205V32.7995ZM15.6266 29.2814C15.6266 29.3922 15.5435 29.4753 15.4327 29.4753H13.8537C13.7429 29.4753 13.6598 29.3922 13.6598 29.2814V27.7024C13.6598 27.5916 13.7429 27.5085 13.8537 27.5085H15.4327C15.5435 27.5085 15.6266 27.5916 15.6266 27.7024V29.2814ZM15.6266 25.7356C15.6266 25.8464 15.5435 25.9295 15.4327 25.9295H13.8537C13.7429 25.9295 13.6598 25.8464 13.6598 25.7356V24.1566C13.6598 24.0458 13.7429 23.9627 13.8537 23.9627H15.4327C15.5435 23.9627 15.6266 24.0458 15.6266 24.1566V25.7356ZM15.6266 22.2175C15.6266 22.3283 15.5435 22.4114 15.4327 22.4114H13.8537C13.7429 22.4114 13.6598 22.3283 13.6598 22.2175V20.6385C13.6598 20.5277 13.7429 20.4446 13.8537 20.4446H15.4327C15.5435 20.4446 15.6266 20.5277 15.6266 20.6385V22.2175ZM19.1724 32.7995C19.1724 32.9103 19.0893 32.9934 18.9785 32.9934H17.3995C17.2887 32.9934 17.2056 32.9103 17.2056 32.7995V31.2205C17.2056 31.1097 17.2887 31.0266 17.3995 31.0266H18.9785C19.0893 31.0266 19.1724 31.1097 19.1724 31.2205V32.7995ZM19.1724 29.2814C19.1724 29.3922 19.0893 29.4753 18.9785 29.4753H17.3995C17.2887 29.4753 17.2056 29.3922 17.2056 29.2814V27.7024C17.2056 27.5916 17.2887 27.5085 17.3995 27.5085H18.9785C19.0893 27.5085 19.1724 27.5916 19.1724 27.7024V29.2814ZM19.1724 25.7356C19.1724 25.8464 19.0893 25.9295 18.9785 25.9295H17.3995C17.2887 25.9295 17.2056 25.8464 17.2056 25.7356V24.1566C17.2056 24.0458 17.2887 23.9627 17.3995 23.9627H18.9785C19.0893 23.9627 19.1724 24.0458 19.1724 24.1566V25.7356ZM19.1724 22.2175C19.1724 22.3283 19.0893 22.4114 18.9785 22.4114H17.3995C17.2887 22.4114 17.2056 22.3283 17.2056 22.2175V20.6385C17.2056 20.5277 17.2887 20.4446 17.3995 20.4446H18.9785C19.0893 20.4446 19.1724 20.5277 19.1724 20.6385V22.2175ZM27.3167 26.4835C27.3167 26.6497 27.1782 26.7606 27.0397 26.7606H25.71V28.0902C25.71 28.2564 25.5715 28.3672 25.433 28.3672H24.3803C24.2141 28.3672 24.1033 28.2287 24.1033 28.0902V26.7606H22.7736C22.6074 26.7606 22.4966 26.622 22.4966 26.4835V25.4309C22.4966 25.2647 22.6351 25.1539 22.7736 25.1539H24.1033V23.8242C24.1033 23.658 24.2418 23.5472 24.3803 23.5472H25.433C25.5992 23.5472 25.71 23.6857 25.71 23.8242V25.1539H27.0397C27.2059 25.1539 27.3167 25.2924 27.3167 25.4309V26.4835ZM32.5523 32.7995C32.5523 32.9103 32.4692 32.9934 32.3584 32.9934H30.7794C30.6686 32.9934 30.5855 32.9103 30.5855 32.7995V31.2205C30.5855 31.1097 30.6686 31.0266 30.7794 31.0266H32.3584C32.4692 31.0266 32.5523 31.1097 32.5523 31.2205V32.7995ZM32.5523 29.2814C32.5523 29.3922 32.4692 29.4753 32.3584 29.4753H30.7794C30.6686 29.4753 30.5855 29.3922 30.5855 29.2814V27.7024C30.5855 27.5916 30.6686 27.5085 30.7794 27.5085H32.3584C32.4692 27.5085 32.5523 27.5916 32.5523 27.7024V29.2814ZM32.5523 25.7356C32.5523 25.8464 32.4692 25.9295 32.3584 25.9295H30.7794C30.6686 25.9295 30.5855 25.8464 30.5855 25.7356V24.1566C30.5855 24.0458 30.6686 23.9627 30.7794 23.9627H32.3584C32.4692 23.9627 32.5523 24.0458 32.5523 24.1566V25.7356ZM32.5523 22.2175C32.5523 22.3283 32.4692 22.4114 32.3584 22.4114H30.7794C30.6686 22.4114 30.5855 22.3283 30.5855 22.2175V20.6385C30.5855 20.5277 30.6686 20.4446 30.7794 20.4446H32.3584C32.4692 20.4446 32.5523 20.5277 32.5523 20.6385V22.2175ZM36.0704 32.7995C36.0704 32.9103 35.9873 32.9934 35.8765 32.9934H34.2975C34.1867 32.9934 34.1036 32.9103 34.1036 32.7995V31.2205C34.1036 31.1097 34.1867 31.0266 34.2975 31.0266H35.8765C35.9873 31.0266 36.0704 31.1097 36.0704 31.2205V32.7995ZM36.0704 29.2814C36.0704 29.3922 35.9873 29.4753 35.8765 29.4753H34.2975C34.1867 29.4753 34.1036 29.3922 34.1036 29.2814V27.7024C34.1036 27.5916 34.1867 27.5085 34.2975 27.5085H35.8765C35.9873 27.5085 36.0704 27.5916 36.0704 27.7024V29.2814ZM36.0704 25.7356C36.0704 25.8464 35.9873 25.9295 35.8765 25.9295H34.2975C34.1867 25.9295 34.1036 25.8464 34.1036 25.7356V24.1566C34.1036 24.0458 34.1867 23.9627 34.2975 23.9627H35.8765C35.9873 23.9627 36.0704 24.0458 36.0704 24.1566V25.7356ZM36.0704 22.2175C36.0704 22.3283 35.9873 22.4114 35.8765 22.4114H34.2975C34.1867 22.4114 34.1036 22.3283 34.1036 22.2175V20.6385C34.1036 20.5277 34.1867 20.4446 34.2975 20.4446H35.8765C35.9873 20.4446 36.0704 20.5277 36.0704 20.6385V22.2175Z" fill="white"/>
</svg>
