<svg width="22" height="21" viewBox="0 0 22 21" fill="none" xmlns="http://www.w3.org/2000/svg">
<path fill-rule="evenodd" clip-rule="evenodd" d="M17.4705 7.11069C18.6797 7.11069 19.6599 6.09828 19.6599 4.84941C19.6599 3.60054 18.6797 2.58813 17.4705 2.58813C16.2614 2.58813 15.2812 3.60054 15.2812 4.84941C15.2812 6.09828 16.2614 7.11069 17.4705 7.11069ZM18.8816 7.11042L17.4275 9.77206L16.0489 7.11398C14.3692 7.68407 13.1208 9.23565 12.9412 11.1125C13.8422 12.5507 15.5331 13.1292 17.4706 13.1292C19.408 13.1292 21.099 12.5507 22 11.1126C21.8199 9.23163 20.5666 7.67752 18.8816 7.11042Z" fill="#79828B"/>
<path fill-rule="evenodd" clip-rule="evenodd" d="M4.44851 7.0302C5.63607 7.0302 6.59877 6.03586 6.59877 4.80929C6.59877 3.58271 5.63607 2.58838 4.44851 2.58838C3.26096 2.58838 2.29825 3.58271 2.29825 4.80929C2.29825 6.03586 3.26096 7.0302 4.44851 7.0302ZM5.83439 7.02997L4.40622 9.6441L3.05225 7.03346C1.40255 7.59338 0.17643 9.11727 0 10.9606C0.88491 12.3731 2.54565 12.9413 4.44857 12.9413C6.3514 12.9413 8.01223 12.3731 8.89714 10.9607C8.72027 9.11332 7.48935 7.58695 5.83439 7.02997Z" fill="#79828B"/>
<g clip-path="url(#clip0)">
<path fill-rule="evenodd" clip-rule="evenodd" d="M11 7.10687C12.9001 7.10687 14.4404 5.51594 14.4404 3.55343C14.4404 1.59093 12.9001 0 11 0C9.09992 0 7.55961 1.59093 7.55961 3.55343C7.55961 5.51594 9.09992 7.10687 11 7.10687ZM13.2173 7.10671L10.9323 11.2893L8.76596 7.1123C6.12644 8.00816 4.16467 10.4464 3.88239 13.3957C5.29823 15.6557 7.9554 16.5648 11.0001 16.5648C14.0446 16.5648 16.7019 15.6557 18.1177 13.3958C17.8347 10.44 15.8653 7.99787 13.2173 7.10671Z" fill="#79828B"/>
</g>
<defs>
<clipPath id="clip0">
<rect width="14.2353" height="20.7059" fill="white" transform="translate(3.88239)"/>
</clipPath>
</defs>
</svg>
