<svg width="17" height="24" viewBox="0 0 17 24" fill="none" xmlns="http://www.w3.org/2000/svg">
<g clip-path="url(#clip0)">
<path d="M10.9936 8.17676L8.30255 12.9891L5.7513 8.18319C2.64279 9.21393 0.332444 12.0192 0 15.4126C1.66742 18.0129 4.79672 19.0588 8.38235 19.0588C11.9678 19.0588 15.0973 18.0129 16.7647 15.4128C16.4314 12.012 14.112 9.20209 10.9936 8.17676ZM13.626 14.3964H12.7903V15.2395H12.078V14.3964H11.2422V13.6776H12.078V12.8343H12.7903V13.6776H13.626V14.3964Z" fill="#79828B"/>
<path d="M8.38232 8.17691C10.62 8.17691 12.434 6.34645 12.434 4.08846C12.434 1.83046 10.62 0 8.38232 0C6.14463 0 4.33063 1.83046 4.33063 4.08846C4.33063 6.34645 6.14463 8.17691 8.38232 8.17691Z" fill="#79828B"/>
<path d="M4.59032 20.647C4.69842 20.647 4.79198 20.6077 4.87098 20.5291C4.94998 20.4505 4.98948 20.3574 4.98948 20.2499V18.4631H6.78569C6.8938 18.4631 6.98735 18.4238 7.06635 18.3453C7.14535 18.2667 7.18485 18.1736 7.18485 18.0661V17.669C7.18485 17.5615 7.14535 17.4684 7.06635 17.3898C6.98735 17.3112 6.8938 17.272 6.78569 17.272H4.98948V15.4852C4.98948 15.3777 4.94998 15.2846 4.87098 15.206C4.79198 15.1274 4.69842 15.0881 4.59032 15.0881H4.19116C4.08305 15.0881 3.9895 15.1274 3.9105 15.206C3.8315 15.2846 3.792 15.3777 3.792 15.4852V17.272H1.99578C1.88767 17.272 1.79412 17.3112 1.71512 17.3898C1.63612 17.4684 1.59662 17.5615 1.59662 17.669V18.0661C1.59662 18.1736 1.63612 18.2667 1.71512 18.3453C1.79412 18.4238 1.88767 18.4631 1.99578 18.4631H3.792V20.2499C3.792 20.3574 3.8315 20.4505 3.9105 20.5291C3.9895 20.6077 4.08305 20.647 4.19116 20.647H4.59032Z" fill="white" stroke="#79828B" stroke-width="0.75"/>
<ellipse cx="12.374" cy="14.294" rx="1.9958" ry="1.58823" fill="white"/>
</g>
<defs>
<clipPath id="clip0">
<rect width="16.7647" height="23.8235" fill="white"/>
</clipPath>
</defs>
</svg>
