<svg width="17" height="24" viewBox="0 0 17 24" fill="none" xmlns="http://www.w3.org/2000/svg">
<g clip-path="url(#clip0)">
<path d="M10.9936 8.17676L8.30255 12.9891L5.7513 8.18319C2.64279 9.21393 0.332444 12.0192 0 15.4126C1.66742 18.0129 4.79672 19.0588 8.38235 19.0588C11.9678 19.0588 15.0973 18.0129 16.7647 15.4128C16.4314 12.012 14.112 9.20209 10.9936 8.17676ZM13.626 14.3964H12.7903V15.2395H12.078V14.3964H11.2422V13.6776H12.078V12.8343H12.7903V13.6776H13.626V14.3964Z" fill="#79828B"/>
<path d="M8.38232 8.17691C10.62 8.17691 12.434 6.34645 12.434 4.08846C12.434 1.83046 10.62 0 8.38232 0C6.14463 0 4.33063 1.83046 4.33063 4.08846C4.33063 6.34645 6.14463 8.17691 8.38232 8.17691Z" fill="#79828B"/>
<ellipse cx="12.374" cy="14.294" rx="1.9958" ry="1.58823" fill="white"/>
</g>
<defs>
<clipPath id="clip0">
<rect width="16.7647" height="23.8235" fill="white"/>
</clipPath>
</defs>
</svg>
