<svg width="25" height="26" viewBox="0 0 25 26" fill="none" xmlns="http://www.w3.org/2000/svg">
<path d="M14.2282 16.231C14.0509 16.231 13.9075 16.3744 13.9075 16.5517V19.3667C13.9075 19.544 14.0509 19.6874 14.2282 19.6874C14.4055 19.6874 14.5489 19.544 14.5489 19.3667V16.5517C14.5489 16.3744 14.4055 16.231 14.2282 16.231Z" fill="#FFC659"/>
<path d="M10.7718 16.3159C10.5945 16.3159 10.451 16.4594 10.451 16.6366V19.4516C10.451 19.6289 10.5945 19.7724 10.7718 19.7724C10.949 19.7724 11.0925 19.6289 11.0925 19.4516V16.6366C11.0925 16.4594 10.949 16.3159 10.7718 16.3159Z" fill="#FFC659"/>
<path d="M24.6793 9.90924H3.56293V7.69399H5.24793V8.7313C5.24793 8.90857 5.39137 9.05202 5.56864 9.05202H13.6585C13.8358 9.05202 13.9792 8.90857 13.9792 8.7313V0.641427C13.9792 0.464158 13.8358 0.320714 13.6585 0.320714H5.56864C5.39137 0.320714 5.24793 0.464158 5.24793 0.641427V1.31762H3.56293V0.320714C3.56293 0.143444 3.41948 0 3.24221 0H1.66495C1.48769 0 1.34424 0.143444 1.34424 0.320714V9.90924H0.320714C0.143444 9.90924 0 10.0527 0 10.2299V12.1755C0 12.3528 0.143444 12.4962 0.320714 12.4962H1.34424V23.6197H0.356105C0.178835 23.6197 0.0353912 23.7632 0.0353912 23.9405V25.5068C0.0353912 25.684 0.178835 25.8275 0.356105 25.8275H24.6439C24.8212 25.8275 24.9646 25.684 24.9646 25.5068V23.9405C24.9646 23.7632 24.8212 23.6197 24.6439 23.6197H23.6558V12.4962H24.6793C24.8566 12.4962 25 12.3528 25 12.1755V10.2299C25 10.0527 24.8566 9.90924 24.6793 9.90924ZM5.88935 0.962141H13.3378V8.41059H5.88935V0.962141ZM3.56293 1.95905H5.24793V7.05257H3.56293V1.95905ZM1.98567 0.641427H2.9215V9.90924H1.98567V0.641427ZM24.3232 24.2612V25.186H0.676818V24.2612H24.3232ZM1.98567 23.6197V12.4962H12.1793V23.6197H1.98567ZM12.8207 23.6197V12.4962H23.0143V23.6197H12.8207ZM24.3586 11.8548H0.641427V10.5507H24.3586V11.8548Z" fill="#FFC659"/>
<path d="M11.9973 3.64344H10.6565V2.30265C10.6565 2.12538 10.513 1.98193 10.3358 1.98193H8.89131C8.71404 1.98193 8.5706 2.12538 8.5706 2.30265V3.64344H7.2298C7.05253 3.64344 6.90909 3.78689 6.90909 3.96416V5.40862C6.90909 5.58589 7.05253 5.72933 7.2298 5.72933H8.5706V7.07013C8.5706 7.2474 8.71404 7.39084 8.89131 7.39084H10.3358C10.513 7.39084 10.6565 7.2474 10.6565 7.07013V5.72933H11.9973C12.1746 5.72933 12.318 5.58589 12.318 5.40862V3.96416C12.318 3.78689 12.1746 3.64344 11.9973 3.64344ZM11.6766 5.08791H10.3358C10.1585 5.08791 10.0151 5.23135 10.0151 5.40862V6.74942H9.21202V5.40862C9.21202 5.23135 9.06858 5.08791 8.89131 5.08791H7.55052V4.28487H8.89131C9.06858 4.28487 9.21202 4.14143 9.21202 3.96416V2.62336H10.0151V3.96416C10.0151 4.14143 10.1585 4.28487 10.3358 4.28487H11.6766V5.08791Z" fill="#FFC659"/>
</svg>
