<svg width="9" height="11" viewBox="0 0 9 11" fill="none" xmlns="http://www.w3.org/2000/svg">
<path fill-rule="evenodd" clip-rule="evenodd" d="M3 6H7V4.28571C7 3.65476 6.80469 3.11607 6.41406 2.66964C6.02344 2.22321 5.55209 2 5 2C4.44791 2 3.97656 2.22321 3.58594 2.66964C3.19531 3.11607 3 3.65476 3 4.28571V6ZM9 5.75V10.25C9 10.4583 8.92708 10.6354 8.78125 10.7812C8.63542 10.9271 8.45833 11 8.25 11H0.75C0.541666 11 0.364584 10.9271 0.21875 10.7812C0.0729159 10.6354 0 10.4583 0 10.25V5.75C0 5.54167 0.0729159 5.36458 0.21875 5.21875C0.364584 5.07292 0.541666 5 0.75 5H1V3.5C1 2.54166 1.34375 1.71875 2.03125 1.03125C2.71875 0.343747 3.54166 0 4.5 0C5.45834 0 6.28125 0.343747 6.96875 1.03125C7.65625 1.71875 8 2.54166 8 3.5V5H8.25C8.45833 5 8.63542 5.07292 8.78125 5.21875C8.92708 5.36458 9 5.54167 9 5.75Z" fill="#A8B6C8"/>
</svg>
