<svg width="200" height="56" viewBox="0 0 200 56" fill="none" xmlns="http://www.w3.org/2000/svg">
<path fill-rule="evenodd" clip-rule="evenodd" d="M24 2.3094C26.4752 0.880338 29.5248 0.880339 32 2.3094L48.2487 11.6906C50.7239 13.1197 52.2487 15.7607 52.2487 18.6188V37.3812C52.2487 40.2393 50.7239 42.8803 48.2487 44.3094L32 53.6906C29.5248 55.1197 26.4752 55.1197 24 53.6906L7.75129 44.3094C5.27608 42.8803 3.75129 40.2393 3.75129 37.3812V18.6188C3.75129 15.7607 5.27608 13.1197 7.75129 11.6906L24 2.3094Z" fill="#7C1D77"/>
<path d="M27.3833 30.3884C27.6494 30.6545 28.0608 30.6545 28.3027 30.3884L29.2464 29.4447C28.5931 28.743 28.1818 27.7752 28.1818 26.759C28.1818 24.5571 29.9723 22.7908 32.1499 22.7908C33.1177 22.7908 34.013 23.1538 34.7147 23.7345C35.489 22.2585 35.247 20.3954 34.013 19.1614C33.2629 18.4113 32.2467 18.0242 31.2305 18.0242C30.2384 18.0242 29.2222 18.4113 28.4721 19.1614L27.8188 19.8147L27.1655 19.1614C26.4396 18.3871 25.4234 18 24.4314 18C23.3909 18 22.3747 18.4113 21.6004 19.2098C20.1245 20.7583 20.2213 23.2263 21.7214 24.7265L27.3833 30.3884Z" fill="white" fill-opacity="0.790138"/>
<path d="M32.1741 23.7345C30.5046 23.7345 29.1496 25.0895 29.1496 26.759C29.1496 28.4285 30.5046 29.7835 32.1741 29.7835C33.8436 29.7835 35.1986 28.4285 35.1986 26.759C35.1986 25.0895 33.8436 23.7345 32.1741 23.7345ZM33.8436 27.2671H32.658V28.4527H31.6418V27.2671H30.4562V26.2509H31.6418V25.0653H32.658V26.2509H33.8436V27.2671Z" fill="white" fill-opacity="0.790138"/>
<path d="M35.1018 33.7758C34.5453 34.0178 33.6016 34.2839 32.6096 34.5743C32.2709 35.1792 31.6176 35.7115 30.5771 35.9535C30.3352 36.0018 30.069 36.0502 29.7545 36.0744C29.0286 36.1228 28.1575 36.0744 27.2139 36.0502C27.1413 36.0502 27.0929 36.0502 27.0203 36.0502C26.7784 36.0502 26.5848 35.8809 26.5606 35.6389C26.5364 35.3486 26.7542 35.1066 27.0445 35.1066C27.1171 35.1066 27.1897 35.1066 27.2623 35.1066C28.4963 35.155 29.6577 35.2034 30.3594 35.0582C31.6902 34.7437 32.0531 33.921 31.9321 33.2193C31.8353 32.6628 31.3998 32.1305 30.7465 32.2031C29.8029 32.2999 28.6898 32.2757 27.601 32.2515C26.367 32.2273 25.0846 32.2273 24.1894 32.3724C23.1974 32.5418 21.1649 33.3645 19.4228 34.6469C18.5517 35.3002 17.5839 36.0502 17.0032 36.51C16.7128 36.7519 16.6644 37.1633 16.9064 37.4536L19.6647 40.7443C19.9067 41.0346 20.318 41.0588 20.6084 40.8169L21.552 40.0426C21.7698 39.849 22.0601 39.8006 22.3505 39.8732C24.141 40.3571 26.0283 40.6475 27.2623 40.6717C29.948 40.6959 34.9808 37.3084 36.4326 36.2196C37.8601 35.1308 36.7229 33.1225 35.1018 33.7758Z" fill="white" fill-opacity="0.790138"/>
<path d="M62.5439 34H63.7759V30.5L65.5819 28.526L69.0259 34H70.4399L66.3939 27.588L69.9499 23.64H68.4659L63.7759 28.988V23.64H62.5439V34ZM72.311 34H73.543V23.64H72.311V34ZM76.3705 34H77.5325V25.586H77.5605L83.2025 34H84.3085V23.64H83.1465V31.83H83.1185L77.6725 23.64H76.3705V34ZM86.9957 34H89.7257C93.0157 34 94.9477 32.306 94.9477 28.792C94.9477 25.32 93.0577 23.64 89.7257 23.64H86.9957V34ZM88.2277 32.894V24.774H89.8517C92.3717 24.774 93.7157 26.006 93.7157 28.792C93.7157 31.676 92.3857 32.894 89.8797 32.894H88.2277ZM97.1424 34H98.3604V29.534H100.698L103.176 34H104.52L101.972 29.38C103.442 29.072 104.38 28.204 104.38 26.538C104.38 24.634 103.05 23.64 100.698 23.64H97.1424V34ZM98.3604 28.442V24.76H100.614C102.266 24.76 103.162 25.222 103.162 26.58C103.162 27.994 102.252 28.442 100.628 28.442H98.3604ZM106.756 34H113.406V32.88H107.988V29.114H111.796V28.008H107.988V24.774H113.112V23.64H106.756V34ZM115.426 34H118.156C121.446 34 123.378 32.306 123.378 28.792C123.378 25.32 121.488 23.64 118.156 23.64H115.426V34ZM116.658 32.894V24.774H118.282C120.802 24.774 122.146 26.006 122.146 28.792C122.146 31.676 120.816 32.894 118.31 32.894H116.658ZM125.573 34H128.303C131.593 34 133.525 32.306 133.525 28.792C133.525 25.32 131.635 23.64 128.303 23.64H125.573V34ZM126.805 32.894V24.774H128.429C130.949 24.774 132.293 26.006 132.293 28.792C132.293 31.676 130.963 32.894 128.457 32.894H126.805ZM139.28 34H139.826V28.75H146.028V34H146.574V23.64H146.028V28.246H139.826V23.64H139.28V34ZM149.536 34H155.682V33.496H150.082V28.75H154.142V28.246H150.082V24.144H155.472V23.64H149.536V34ZM157.065 34H157.625L158.899 30.416H163.281L164.541 34H165.115L161.405 23.598H160.789L157.065 34ZM159.067 29.926L161.083 24.214L163.099 29.926H159.067ZM167.245 34H173.069V33.496H167.791V23.64H167.245V34ZM177.794 34H178.34V24.144H181.798V23.64H174.336V24.144H177.794V34ZM183.888 34H184.434V28.75H190.636V34H191.182V23.64H190.636V28.246H184.434V23.64H183.888V34Z" fill="white"/>
</svg>
