<svg width="45" height="43" viewBox="0 0 45 43" fill="none" xmlns="http://www.w3.org/2000/svg">
<path d="M7.17162 32.1177H5.13058C2.30153 32.1177 0 34.3344 0 37.0589V40.6565C0 41.3986 0.62452 42 1.39509 42H7.41176C7.25663 41.5795 7.17162 41.1275 7.17162 40.6565V32.1177Z" fill="white"/>
<path d="M17.0538 27.1765H15.0131C12.1841 27.1765 9.8822 29.1007 9.8822 31.4656V40.8339C9.8822 41.478 10.5067 42 11.2773 42H17.294C17.1392 41.635 17.0538 41.2426 17.0538 40.8339V27.1765Z" fill="white"/>
<path d="M26.9368 19.7646H24.8957C22.0667 19.7646 19.7648 21.795 19.7648 24.2908V40.7692C19.7648 41.449 20.3897 41.9999 21.1599 41.9999H27.1765C27.0218 41.6147 26.9368 41.2006 26.9368 40.7692V19.7646Z" fill="white"/>
<path d="M29.8867 9.88232H31.9278C34.7568 9.88232 37.0587 12.8151 37.0587 16.4201V40.2222C37.0587 41.2042 36.4338 42 35.6636 42H29.647C29.8017 41.4435 29.8867 40.8454 29.8867 40.2222V9.88232Z" fill="white"/>
</svg>
