<svg width="135" height="135" viewBox="0 0 135 135" fill="none" xmlns="http://www.w3.org/2000/svg">
<g clip-path="url(#clip0)">
<path d="M67.1343 134.269C102.618 134.269 131.384 105.503 131.384 70.0191C131.384 34.535 102.618 5.76941 67.1343 5.76941C31.6502 5.76941 2.88464 34.535 2.88464 70.0191C2.88464 105.503 31.6502 134.269 67.1343 134.269Z" fill="#FF9518"/>
<path d="M13.1122 104.809C16.787 110.504 21.338 115.578 26.5737 119.845H107.695C112.931 115.578 117.482 110.503 121.157 104.809V15.4723H13.1122V104.809Z" fill="#AEC1ED"/>
<path d="M13.1122 15.4723V104.809C14.6898 107.254 16.4301 109.584 18.3159 111.785V15.4723H13.1122Z" fill="#445EA0"/>
<path d="M110.015 23.349H24.2534C23.5322 23.349 22.9421 23.939 22.9421 24.6602V42.593C22.9421 43.3141 23.5322 43.9042 24.2534 43.9042H45.241C46.4004 32.8475 55.7758 24.2005 67.1341 24.2005C78.493 24.2005 87.8684 32.8475 89.0275 43.9042H110.015C110.736 43.9042 111.326 43.3141 111.326 42.593V24.6602C111.327 23.939 110.737 23.349 110.015 23.349Z" fill="#EEF6FF"/>
<path d="M67.1343 34.1658C61.2808 34.1658 56.3907 38.3622 55.309 43.9042H78.9599C77.8782 38.3622 72.9881 34.1658 67.1343 34.1658Z" fill="#EEF6FF"/>
<path d="M110.015 52.377H24.2534C23.5322 52.377 22.9421 52.967 22.9421 53.6882V58.5405C22.9421 59.2616 23.5322 59.8517 24.2534 59.8517H36.8812C37.4269 59.34 38.1578 59.024 38.9631 59.024H95.3054C96.1102 59.024 96.8416 59.34 97.3871 59.8517H110.015C110.736 59.8517 111.326 59.2616 111.326 58.5405V53.6882C111.327 52.967 110.737 52.377 110.015 52.377Z" fill="#EEF6FF"/>
<path d="M35.9143 62.6036H24.2534C23.5322 62.6036 22.9421 63.1937 22.9421 63.9149V68.7674C22.9421 69.4886 23.5322 70.0786 24.2534 70.0786H35.9143V62.6036Z" fill="#EEF6FF"/>
<path d="M110.016 62.6036H98.3545V70.0786H110.016C110.737 70.0786 111.327 69.4886 111.327 68.7674V63.9149C111.327 63.1937 110.737 62.6036 110.016 62.6036Z" fill="#EEF6FF"/>
<path d="M35.9143 72.8308H24.2534C23.5322 72.8308 22.9421 73.4209 22.9421 74.142V78.9943C22.9421 79.7155 23.5322 80.3055 24.2534 80.3055H35.9143V72.8308Z" fill="#EEF6FF"/>
<path d="M110.016 72.8308H98.3545V80.3055H110.016C110.737 80.3055 111.327 79.7155 111.327 78.9943V74.142C111.327 73.4209 110.737 72.8308 110.016 72.8308Z" fill="#EEF6FF"/>
<path d="M35.9143 83.0579H24.2534C23.5322 83.0579 22.9421 83.6479 22.9421 84.3691V89.2214C22.9421 89.9425 23.5322 90.5326 24.2534 90.5326H35.9143V83.0579Z" fill="#EEF6FF"/>
<path d="M110.016 83.0579H98.3545V90.5326H110.016C110.737 90.5326 111.327 89.9425 111.327 89.2214V84.3691C111.327 83.6479 110.737 83.0579 110.016 83.0579Z" fill="#EEF6FF"/>
<path d="M35.9143 93.2847H24.2534C23.5322 93.2847 22.9421 93.8747 22.9421 94.5959V99.4482C22.9421 100.169 23.5322 100.759 24.2534 100.759H35.9143V93.2847Z" fill="#EEF6FF"/>
<path d="M110.016 93.2847H98.3545V100.759H110.016C110.737 100.759 111.327 100.169 111.327 99.4482V94.5959C111.327 93.8747 110.737 93.2847 110.016 93.2847Z" fill="#EEF6FF"/>
<path d="M110.015 103.512H98.3542V104.131C98.3542 105.813 96.9864 107.18 95.3054 107.18H38.9631C37.2821 107.18 35.9143 105.813 35.9143 104.131V103.512H24.2534C23.5322 103.512 22.9421 104.102 22.9421 104.823V109.675C22.9421 110.396 23.5322 110.986 24.2534 110.986H110.015C110.736 110.986 111.326 110.396 111.326 109.675V104.823C111.327 104.102 110.737 103.512 110.015 103.512Z" fill="#EEF6FF"/>
<path d="M28.1458 42.593V24.6602C28.1458 23.939 28.7359 23.349 29.4571 23.349H24.2534C23.5322 23.349 22.9421 23.939 22.9421 24.6602V42.593C22.9421 43.3141 23.5322 43.9042 24.2534 43.9042H29.4571C28.7359 43.9042 28.1458 43.3141 28.1458 42.593Z" fill="#D9EAFC"/>
<path d="M28.1458 58.5405V53.6882C28.1458 52.967 28.7359 52.377 29.4571 52.377H24.2534C23.5322 52.377 22.9421 52.967 22.9421 53.6882V58.5405C22.9421 59.2616 23.5322 59.8517 24.2534 59.8517H29.4571C28.7359 59.8517 28.1458 59.2616 28.1458 58.5405Z" fill="#D9EAFC"/>
<path d="M28.1458 68.7673V63.9147C28.1458 63.1936 28.7359 62.6035 29.4571 62.6035H24.2534C23.5322 62.6035 22.9421 63.1936 22.9421 63.9147V68.7673C22.9421 69.4885 23.5322 70.0785 24.2534 70.0785H29.4571C28.7359 70.0785 28.1458 69.4885 28.1458 68.7673Z" fill="#D9EAFC"/>
<path d="M28.1458 78.9943V74.142C28.1458 73.4209 28.7359 72.8308 29.4571 72.8308H24.2534C23.5322 72.8308 22.9421 73.4209 22.9421 74.142V78.9943C22.9421 79.7155 23.5322 80.3055 24.2534 80.3055H29.4571C28.7359 80.3055 28.1458 79.7155 28.1458 78.9943Z" fill="#D9EAFC"/>
<path d="M28.1458 89.2214V84.3691C28.1458 83.6479 28.7359 83.0579 29.4571 83.0579H24.2534C23.5322 83.0579 22.9421 83.6479 22.9421 84.3691V89.2214C22.9421 89.9425 23.5322 90.5326 24.2534 90.5326H29.4571C28.7359 90.5326 28.1458 89.9425 28.1458 89.2214Z" fill="#D9EAFC"/>
<path d="M28.1458 99.4482V94.5959C28.1458 93.8747 28.7359 93.2847 29.4571 93.2847H24.2534C23.5322 93.2847 22.9421 93.8747 22.9421 94.5959V99.4482C22.9421 100.169 23.5322 100.759 24.2534 100.759H29.4571C28.7359 100.759 28.1458 100.169 28.1458 99.4482Z" fill="#D9EAFC"/>
<path d="M28.1458 109.675V104.823C28.1458 104.102 28.7359 103.512 29.4571 103.512H24.2534C23.5322 103.512 22.9421 104.102 22.9421 104.823V109.675C22.9421 110.396 23.5322 110.986 24.2534 110.986H29.4571C28.7359 110.986 28.1458 110.396 28.1458 109.675Z" fill="#D9EAFC"/>
<path d="M55.3467 59.0239V46.2162C55.3467 39.7162 60.6348 34.4281 67.1345 34.4281C73.6345 34.4281 78.9226 39.7162 78.9226 46.2162V59.0239H89.4124V46.2162C89.4124 33.9322 79.4185 23.9384 67.1345 23.9384C54.8505 23.9384 44.8569 33.9322 44.8569 46.2162V59.0239H55.3467Z" fill="#445EA0"/>
<path d="M50.0606 59.0239V46.2162C50.0606 34.8128 58.6748 25.3886 69.7365 24.0952C68.8821 23.9953 68.0149 23.9381 67.1345 23.9381C54.8505 23.9381 44.8569 33.932 44.8569 46.216V59.0237L50.0606 59.0239Z" fill="#143487"/>
<path d="M98.6163 104.131C98.6163 105.952 97.1262 107.442 95.3052 107.442H38.9629C37.1419 107.442 35.6519 105.952 35.6519 104.131V62.0727C35.6519 60.2517 37.1419 58.7616 38.9629 58.7616H95.3052C97.1262 58.7616 98.6163 60.2517 98.6163 62.0727V104.131Z" fill="#FF9518"/>
<path d="M40.8556 104.131V62.0727C40.8556 60.2517 42.3456 58.7616 44.1666 58.7616H38.9629C37.1419 58.7616 35.6519 60.2517 35.6519 62.0727V104.131C35.6519 105.952 37.1419 107.442 38.9629 107.442H44.1666C42.3456 107.442 40.8556 105.952 40.8556 104.131Z" fill="#DB722C" fill-opacity="0.61"/>
<path d="M73.4252 73.7686C73.4252 70.2942 70.6084 67.4777 67.134 67.4777C63.6598 67.4777 60.843 70.2944 60.843 73.7686C60.843 76.556 62.6564 78.9183 65.1672 79.7444V89.9931C65.1672 91.0793 66.0475 91.9599 67.134 91.9599C68.2205 91.9599 69.1008 91.0793 69.1008 89.9931V79.7444C71.6115 78.9186 73.4252 76.556 73.4252 73.7686Z" fill="#DB722C"/>
<path d="M35.6519 98.6018V104.131C35.6519 105.952 37.1419 107.442 38.9629 107.442H95.3052C97.1262 107.442 98.6163 105.952 98.6163 104.131V98.6018H35.6519Z" fill="#DB722C"/>
<path d="M118.534 0H15.7346C14.2923 0 13.1122 1.1801 13.1122 2.62244V15.7346H121.157V2.62244C121.157 1.1801 119.976 0 118.534 0Z" fill="#445EA0"/>
<path d="M21.0721 10.565C20.5111 10.565 19.9643 10.3382 19.5681 9.94457C19.1742 9.54805 18.9476 9.00128 18.9476 8.4406C18.9476 7.88228 19.1742 7.33577 19.5681 6.93925C19.9646 6.54248 20.5114 6.31616 21.0721 6.31616C21.6301 6.31616 22.1798 6.54274 22.5734 6.93925C22.9702 7.33577 23.1968 7.88228 23.1968 8.4406C23.1968 9.00128 22.9702 9.54805 22.5734 9.94457C22.1795 10.3382 21.6299 10.565 21.0721 10.565Z" fill="#E26693"/>
<path d="M28.0391 10.565C27.4811 10.565 26.9314 10.3382 26.5375 9.94168C26.141 9.54805 25.9144 9.00128 25.9144 8.4406C25.9144 7.88228 26.141 7.33577 26.5375 6.93925C26.9343 6.54248 27.4811 6.31616 28.0391 6.31616C28.6001 6.31616 29.1466 6.54274 29.5434 6.93925C29.937 7.33577 30.1636 7.88228 30.1636 8.4406C30.1636 8.99865 29.937 9.54805 29.5434 9.94168C29.1466 10.3382 28.6001 10.565 28.0391 10.565Z" fill="#FFAF10"/>
<path d="M35.009 10.565C34.448 10.565 33.9013 10.3382 33.5076 9.94457C33.1109 9.54805 32.8843 9.00128 32.8843 8.4406C32.8843 7.88228 33.1109 7.33577 33.5076 6.93925C33.9013 6.54248 34.448 6.31616 35.009 6.31616C35.567 6.31616 36.1167 6.54274 36.5103 6.93925C36.9071 7.33577 37.1337 7.88228 37.1337 8.4406C37.1337 9.00128 36.9071 9.54805 36.5103 9.94457C36.1138 10.3382 35.567 10.565 35.009 10.565Z" fill="#37C47A"/>
</g>
<defs>
<clipPath id="clip0">
<rect width="134.269" height="134.269" fill="white"/>
</clipPath>
</defs>
</svg>
