<svg width="129" height="132" viewBox="0 0 129 132" fill="none" xmlns="http://www.w3.org/2000/svg">
<path d="M128.556 67.1639C128.556 102.664 99.7779 131.442 64.278 131.442C28.7782 131.442 0 102.664 0 67.1639C0 31.6641 28.7782 2.88586 64.278 2.88586C99.7779 2.88586 128.556 31.6641 128.556 67.1639Z" fill="#FF6E6E"/>
<path d="M94.7111 19.8261C94.6306 30.6755 85.6375 39.3538 74.7876 39.3538H55.1946C54.7517 39.3538 54.3388 39.5773 54.0963 39.948L47.0108 50.7913C46.4932 51.5837 45.3322 51.5837 44.8146 50.7913L37.7291 39.948C37.4869 39.5773 37.0737 39.3538 36.6308 39.3538H27.5322C16.6823 39.3538 7.68917 30.6755 7.60889 19.8261C7.52782 8.89019 16.3683 -0.00012207 27.2853 -0.00012207H75.0347C85.9518 -0.00012207 94.7922 8.89019 94.7111 19.8261Z" fill="#445EA0"/>
<path d="M48.5365 7.87066V31.483C48.5365 32.932 47.3619 34.1066 45.9129 34.1066C44.4639 34.1066 43.2893 32.932 43.2893 31.483V7.87066C43.2893 6.42165 44.4639 5.24707 45.9129 5.24707C47.3619 5.24707 48.5365 6.42165 48.5365 7.87066ZM36.7303 10.4943C35.2813 10.4943 34.1067 11.6688 34.1067 13.1179V26.2358C34.1067 27.6848 35.2813 28.8594 36.7303 28.8594C38.1793 28.8594 39.3539 27.6848 39.3539 26.2358V13.1179C39.3539 11.6688 38.1793 10.4943 36.7303 10.4943ZM55.0954 10.4943C53.6464 10.4943 52.4719 11.6688 52.4719 13.1179V26.2358C52.4719 27.6848 53.6464 28.8594 55.0954 28.8594C56.5445 28.8594 57.719 27.6848 57.719 26.2358V13.1179C57.719 11.6688 56.5445 10.4943 55.0954 10.4943ZM25.9736 15.7414C24.5245 15.7414 23.35 16.916 23.35 18.365V20.9886C23.35 22.4376 24.5245 23.6122 25.9736 23.6122C27.4226 23.6122 28.5972 22.4376 28.5972 20.9886V18.365C28.5972 16.916 27.4226 15.7414 25.9736 15.7414ZM65.3275 15.7414C63.8784 15.7414 62.7039 16.916 62.7039 18.365V20.9886C62.7039 22.4376 63.8784 23.6122 65.3275 23.6122C66.7765 23.6122 67.9511 22.4376 67.9511 20.9886V18.365C67.9511 16.916 66.7765 15.7414 65.3275 15.7414ZM15.4792 17.0532C14.0302 17.0532 12.8556 18.2278 12.8556 19.6768C12.8556 21.1258 14.0302 22.3004 15.4792 22.3004C16.9282 22.3004 18.1028 21.1258 18.1028 19.6768C18.1028 18.2278 16.9282 17.0532 15.4792 17.0532Z" fill="#FFF5F5"/>
<path d="M123.047 68.4558V94.4493C123.047 97.3473 120.697 99.6965 117.799 99.6965H52.2095C49.3115 99.6965 46.9623 97.3473 46.9623 94.4493V68.4558C46.9623 67.027 47.545 65.6601 48.5756 64.6705L81.3705 33.1873C83.4009 31.238 86.6077 31.238 88.6381 33.1873L121.433 64.6705C122.464 65.6601 123.047 67.027 123.047 68.4558Z" fill="#FF9518"/>
<path d="M109.929 36.7301V68.2132C109.929 74.009 105.23 78.7076 99.4342 78.7076H70.5747C64.7789 78.7076 60.0803 74.009 60.0803 68.2132V36.7301C60.0803 30.9343 64.7789 26.2357 70.5747 26.2357H99.4342C105.23 26.2357 109.929 30.9343 109.929 36.7301Z" fill="#FF7C48"/>
<path d="M91.5634 107.567H78.4454C75.5474 107.567 73.1982 105.218 73.1982 102.32V94.4492H96.8106V102.32C96.8106 105.218 94.4614 107.567 91.5634 107.567Z" fill="#F76937"/>
<path d="M72.4112 102.32C69.5132 102.32 67.164 99.9708 67.164 97.0728V54.4027C67.164 33.8056 74.8577 16.6749 85.0044 13.1178C95.1512 16.6751 102.845 33.8059 102.845 54.4027V97.0728C102.845 99.9708 100.496 102.32 97.5977 102.32H72.4112Z" fill="#55A4F9"/>
<path d="M85.0044 89.202C75.1515 89.202 67.164 81.2145 67.164 71.3616V41.2847C67.164 20.688 74.8577 3.55721 85.0044 -0.00012207C95.1512 3.55721 102.845 20.688 102.845 41.2847V71.3616C102.845 81.2145 94.8573 89.202 85.0044 89.202Z" fill="#86BEFB"/>
<path d="M8.92023 116.75V64.2779C8.92023 62.1045 10.6822 60.3425 12.8556 60.3425H81.069C83.2424 60.3425 85.0044 62.1045 85.0044 64.2779V116.75C85.0044 118.923 83.2424 120.685 81.069 120.685H12.8556C10.6822 120.685 8.92023 118.923 8.92023 116.75Z" fill="#AEC1ED"/>
<path d="M18.1028 116.75V64.2779C18.1028 62.1045 19.8648 60.3425 22.0382 60.3425H81.069C83.2424 60.3425 85.0044 62.1045 85.0044 64.2779V116.75C85.0044 118.923 83.2424 120.685 81.069 120.685H22.0382C19.8648 120.685 18.1028 118.923 18.1028 116.75Z" fill="#E9F3FE"/>
<path d="M24.6619 65.5897C19.5905 65.5897 15.4793 69.7009 15.4793 74.7723C15.4793 79.8437 19.5905 83.9549 24.6619 83.9549C29.7333 83.9549 33.8445 79.8437 33.8445 74.7723C33.8445 69.7009 29.7333 65.5897 24.6619 65.5897ZM24.6619 78.7077C22.4885 78.7077 20.7265 76.9457 20.7265 74.7723C20.7265 72.5989 22.4885 70.8369 24.6619 70.8369C26.8353 70.8369 28.5973 72.5989 28.5973 74.7723C28.5973 76.9457 26.8353 78.7077 24.6619 78.7077ZM71.8866 83.9549H59.1388C57.429 83.103 55.429 83.0547 53.6801 83.8234L53.381 83.9549H41.7152C40.2662 83.9549 39.0916 82.7803 39.0916 81.3313C39.0916 72.6375 46.1394 65.5897 54.8332 65.5897H58.7686C67.4624 65.5897 74.5102 72.6375 74.5102 81.3313C74.5102 82.7803 73.3356 83.9549 71.8866 83.9549ZM22.0383 91.8257V112.814C22.0383 114.263 20.8637 115.438 19.4147 115.438C17.9657 115.438 16.7911 114.263 16.7911 112.814V91.8257C16.7911 90.3766 17.9657 89.2021 19.4147 89.2021C20.8637 89.2021 22.0383 90.3766 22.0383 91.8257ZM29.9091 89.2021C28.4601 89.2021 27.2855 90.3766 27.2855 91.8257V112.814C27.2855 114.263 28.4601 115.438 29.9091 115.438C31.3581 115.438 32.5327 114.263 32.5327 112.814V91.8257C32.5327 90.3766 31.3581 89.2021 29.9091 89.2021ZM40.4034 89.2021C38.9544 89.2021 37.7799 90.3766 37.7799 91.8257V112.814C37.7799 114.263 38.9544 115.438 40.4034 115.438C41.8525 115.438 43.027 114.263 43.027 112.814V91.8257C43.027 90.3766 41.8525 89.2021 40.4034 89.2021ZM50.8978 89.2021C49.4488 89.2021 48.2742 90.3766 48.2742 91.8257V112.814C48.2742 114.263 49.4488 115.438 50.8978 115.438C52.3468 115.438 53.5214 114.263 53.5214 112.814V91.8257C53.5214 90.3766 52.3468 89.2021 50.8978 89.2021ZM61.3922 89.2021C59.9432 89.2021 58.7686 90.3766 58.7686 91.8257V112.814C58.7686 114.263 59.9432 115.438 61.3922 115.438C62.8412 115.438 64.0158 114.263 64.0158 112.814V91.8257C64.0158 90.3766 62.8412 89.2021 61.3922 89.2021Z" fill="#A7D0FC"/>
<path d="M22.0382 112.814C22.0382 114.263 20.8636 115.438 19.4146 115.438C17.9656 115.438 16.791 114.263 16.791 112.814C16.791 111.365 17.9656 110.191 19.4146 110.191C20.8636 110.191 22.0382 111.365 22.0382 112.814ZM71.8865 89.202C70.4375 89.202 69.2629 90.3766 69.2629 91.8256V112.814C69.2629 114.263 70.4375 115.438 71.8865 115.438C73.3355 115.438 74.5101 114.263 74.5101 112.814V91.8256C74.5101 90.3766 73.3355 89.202 71.8865 89.202ZM40.4034 99.6964C38.9544 99.6964 37.7798 100.871 37.7798 102.32V112.814C37.7798 114.263 38.9544 115.438 40.4034 115.438C41.8524 115.438 43.027 114.263 43.027 112.814V102.32C43.027 100.871 41.8524 99.6964 40.4034 99.6964ZM29.909 104.944C28.46 104.944 27.2854 106.118 27.2854 107.567V112.814C27.2854 114.263 28.46 115.438 29.909 115.438C31.358 115.438 32.5326 114.263 32.5326 112.814V107.567C32.5326 106.118 31.358 104.944 29.909 104.944ZM50.8977 102.32C49.4487 102.32 48.2741 103.495 48.2741 104.944V112.814C48.2741 114.263 49.4487 115.438 50.8977 115.438C52.3468 115.438 53.5213 114.263 53.5213 112.814V104.944C53.5213 103.495 52.3468 102.32 50.8977 102.32ZM61.3921 94.4492C59.9431 94.4492 58.7685 95.6238 58.7685 97.0728V112.814C58.7685 114.263 59.9431 115.438 61.3921 115.438C62.8411 115.438 64.0157 114.263 64.0157 112.814V97.0728C64.0157 95.6238 62.8411 94.4492 61.3921 94.4492ZM23.2041 71.1157C23.7958 70.8796 24.4582 70.7831 25.1508 70.8665C26.9223 71.0801 28.3545 72.5123 28.5678 74.2837C28.6512 74.9764 28.5544 75.6386 28.3186 76.2302C27.9318 77.1996 28.1139 78.3018 28.8519 79.0398L28.9669 79.1547C30.2364 80.4243 32.4038 80.0291 33.1095 78.3781C33.6526 77.1075 33.9173 75.6895 33.8271 74.2006C33.549 69.6111 29.8221 65.8848 25.2327 65.6072C23.7441 65.5173 22.3263 65.782 21.0559 66.3251C19.4052 67.0308 19.0098 69.1979 20.2793 70.4675L20.3943 70.5824C21.1325 71.3201 22.2347 71.5025 23.2041 71.1157ZM59.1387 83.9548C59.3271 83.3105 59.4968 82.6386 59.6443 81.9451C60.6612 77.1621 60.2892 72.8822 58.8711 71.3899C56.9685 72.1765 54.8872 75.9345 53.8703 80.7176C53.6328 81.8339 53.4712 82.9227 53.381 83.9551H59.1387V83.9548Z" fill="#FF6E6E"/>
<path d="M90.2516 55.0953H79.7572C76.8592 55.0953 74.51 52.7461 74.51 49.8481V23.6122C74.51 17.8164 79.2086 13.1178 85.0044 13.1178C90.8002 13.1178 95.4988 17.8164 95.4988 23.6122V49.8481C95.4988 52.7461 93.1496 55.0953 90.2516 55.0953Z" fill="#3493F8"/>
<path d="M90.2516 34.1067H79.7572C76.8592 34.1067 74.51 31.7575 74.51 28.8595C74.51 25.9615 76.8592 23.6123 79.7572 23.6123H90.2516C93.1496 23.6123 95.4988 25.9615 95.4988 28.8595C95.4988 31.7575 93.1496 34.1067 90.2516 34.1067Z" fill="#AEC1ED"/>
<path d="M90.2516 34.1067H86.3162C83.4181 34.1067 81.069 31.7575 81.069 28.8595C81.069 25.9615 83.4181 23.6123 86.3162 23.6123H90.2516C93.1496 23.6123 95.4988 25.9615 95.4988 28.8595C95.4988 31.7575 93.1496 34.1067 90.2516 34.1067Z" fill="#FFF5F5"/>
</svg>
