<svg width="135" height="135" viewBox="0 0 135 135" fill="none" xmlns="http://www.w3.org/2000/svg">
<path d="M67.1344 134.269C104.212 134.269 134.269 104.212 134.269 67.1344C134.269 30.0571 104.212 0 67.1344 0C30.0571 0 0 30.0571 0 67.1344C0 104.212 30.0571 134.269 67.1344 134.269Z" fill="#E26693"/>
<path d="M72.0599 6.01624H21.7763C11.9353 6.01624 3.95789 13.9939 3.95789 23.8346V53.7844C3.95789 63.6254 11.9353 71.6028 21.7763 71.6028H21.839V80.6177C21.839 85.5088 27.29 88.4263 31.3597 85.7131L52.5249 71.6028H72.0599C81.9009 71.6028 89.8783 63.6251 89.8783 53.7844V23.8346C89.8783 13.9939 81.9009 6.01624 72.0599 6.01624Z" fill="#80B4FB"/>
<path d="M27.8354 71.6021H21.7747C11.9347 71.6021 3.95703 63.6244 3.95703 53.7848V23.8347C3.95703 13.9948 11.9347 6.01709 21.7747 6.01709H27.8354C17.9955 6.01709 10.0177 13.9948 10.0177 23.8347V53.7848C10.0177 63.6247 17.9955 71.6021 27.8354 71.6021Z" fill="#AEC1ED"/>
<path d="M62.3269 51.2764H112.611C122.452 51.2764 130.429 59.2541 130.429 69.0948V99.0446C130.429 108.886 122.452 116.863 112.611 116.863H112.548V125.878C112.548 130.769 107.097 133.686 103.027 130.973L81.8622 116.863H62.3272C52.4862 116.863 44.5088 108.886 44.5088 99.0448V69.0948C44.5085 59.2538 52.4862 51.2764 62.3269 51.2764Z" fill="#80B4FB"/>
<path d="M68.3863 116.862H62.3255C52.4856 116.862 44.5079 108.885 44.5079 99.045V69.095C44.5079 59.2551 52.4856 51.2773 62.3255 51.2773H68.3863C58.5464 51.2773 50.5686 59.2551 50.5686 69.095V99.045C50.5689 108.885 58.5464 116.862 68.3863 116.862Z" fill="#61A2F9"/>
<path d="M124.219 20.8354L121.536 21.3274C116.446 13.8388 108.971 8.38436 100.19 5.82303C96.6105 4.77878 92.862 6.8345 91.8178 10.4144C90.7735 13.9943 92.8293 17.7428 96.4091 18.787C100.067 19.8541 103.377 21.6901 106.16 24.146L105.402 24.285C101.93 24.9212 100.45 29.0767 102.737 31.7647L115.132 46.3342C117.418 49.0219 121.757 48.2268 122.941 44.9028L129.364 26.8841C130.549 23.5594 127.691 20.1992 124.219 20.8354Z" fill="#FF9518"/>
<path d="M10.6628 113.339L13.3463 112.847C18.4357 120.336 25.9107 125.79 34.6916 128.352C38.2715 129.396 42.02 127.34 43.0643 123.76C44.1085 120.18 42.0528 116.432 38.4729 115.388C34.8151 114.321 31.5051 112.485 28.7219 110.029L29.4803 109.89C32.9516 109.254 34.4323 105.098 32.1455 102.41L19.7506 87.8406C17.4641 85.1529 13.1255 85.948 11.9407 89.2719L5.51808 107.291C4.33326 110.615 7.19146 113.976 10.6628 113.339Z" fill="#FF9518"/>
<path d="M69.9631 92.0959C73.1419 92.0959 75.7188 89.519 75.7188 86.3402C75.7188 83.1614 73.1419 80.5845 69.9631 80.5845C66.7843 80.5845 64.2074 83.1614 64.2074 86.3402C64.2074 89.519 66.7843 92.0959 69.9631 92.0959Z" fill="#524798"/>
<path d="M87.4687 92.0958C90.6475 92.0958 93.2245 89.5189 93.2245 86.3401C93.2245 83.1613 90.6475 80.5844 87.4687 80.5844C84.2899 80.5844 81.713 83.1613 81.713 86.3401C81.713 89.5189 84.2899 92.0958 87.4687 92.0958Z" fill="#524798"/>
<path d="M104.974 92.0958C108.153 92.0958 110.73 89.5189 110.73 86.3401C110.73 83.1613 108.153 80.5844 104.974 80.5844C101.795 80.5844 99.2184 83.1613 99.2184 86.3401C99.2184 89.5189 101.795 92.0958 104.974 92.0958Z" fill="#524798"/>
<path d="M31.6743 46.2474C34.8531 46.2474 37.43 43.6705 37.43 40.4917C37.43 37.3129 34.8531 34.736 31.6743 34.736C28.4955 34.736 25.9186 37.3129 25.9186 40.4917C25.9186 43.6705 28.4955 46.2474 31.6743 46.2474Z" fill="#524798"/>
<path d="M49.1797 46.2459C52.3585 46.2459 54.9354 43.669 54.9354 40.4902C54.9354 37.3114 52.3585 34.7345 49.1797 34.7345C46.0009 34.7345 43.424 37.3114 43.424 40.4902C43.424 43.669 46.0009 46.2459 49.1797 46.2459Z" fill="#524798"/>
<path d="M66.6852 46.2459C69.864 46.2459 72.4409 43.669 72.4409 40.4902C72.4409 37.3114 69.864 34.7345 66.6852 34.7345C63.5064 34.7345 60.9294 37.3114 60.9294 40.4902C60.9294 43.669 63.5064 46.2459 66.6852 46.2459Z" fill="#524798"/>
</svg>
