<svg width="10" height="13" viewBox="0 0 10 13" fill="none" xmlns="http://www.w3.org/2000/svg">
<path fill-rule="evenodd" clip-rule="evenodd" d="M10 10.7704C10 11.3818 9.83724 11.9062 9.51172 12.3438C9.1862 12.7813 8.79427 13 8.33594 13H1.66406C1.20573 13 0.813804 12.7813 0.488281 12.3438C0.162759 11.9062 0 11.3818 0 10.7704C0 10.2937 0.0221352 9.84355 0.0664062 9.42007C0.110677 8.99659 0.192708 8.57031 0.3125 8.14123C0.432292 7.71214 0.584634 7.34475 0.769531 7.03906C0.954428 6.73337 1.19922 6.48378 1.50391 6.29026C1.8086 6.09675 2.15885 6 2.55469 6C3.23698 6.71795 4.05208 7.07692 5 7.07692C5.94792 7.07692 6.76302 6.71795 7.44531 6C7.84115 6 8.1914 6.09675 8.49609 6.29026C8.80078 6.48378 9.04557 6.73337 9.23047 7.03906C9.41537 7.34475 9.56771 7.71214 9.6875 8.14123C9.80729 8.57031 9.88932 8.99659 9.93359 9.42007C9.97787 9.84355 10 10.2937 10 10.7704ZM8 3C8 3.82813 7.70703 4.53515 7.12109 5.12109C6.53515 5.70703 5.82813 6 5 6C4.17187 6 3.46485 5.70703 2.87891 5.12109C2.29297 4.53515 2 3.82813 2 3C2 2.17187 2.29297 1.46485 2.87891 0.878906C3.46485 0.292966 4.17187 0 5 0C5.82813 0 6.53515 0.292966 7.12109 0.878906C7.70703 1.46485 8 2.17187 8 3Z" fill="#A8B6C8"/>
</svg>
