<svg id="Layer_1" data-name="Layer 1" xmlns="http://www.w3.org/2000/svg" xmlns:xlink="http://www.w3.org/1999/xlink" viewBox="0 0 1235.34 375.33"><defs><style>.cls-1{fill:#673d86;}.cls-2{fill:url(#linear-gradient);}.cls-3{fill:url(#linear-gradient-2);}</style><linearGradient id="linear-gradient" x1="-0.48" y1="129.92" x2="375.09" y2="129.92" gradientUnits="userSpaceOnUse"><stop offset="0" stop-color="#673d86"/><stop offset="0.21" stop-color="#664087"/><stop offset="0.38" stop-color="#634a8b"/><stop offset="0.53" stop-color="#5f5b91"/><stop offset="0.67" stop-color="#58739a"/><stop offset="0.81" stop-color="#4f92a6"/><stop offset="0.94" stop-color="#45b7b4"/><stop offset="1" stop-color="#40c9bb"/></linearGradient><linearGradient id="linear-gradient-2" x1="-0.48" y1="245.41" x2="375.09" y2="245.41" xlink:href="#linear-gradient"/></defs><path class="cls-1" d="M601.31,41.83a15,15,0,1,0,15.07,14.9A15.08,15.08,0,0,0,601.31,41.83Z"/><rect class="cls-1" x="588.86" y="82.5" width="24.54" height="90.1"/><path class="cls-1" d="M687.9,80.4a41.5,41.5,0,0,0-26.29,8.94V82.5H637.07v90.1h24.54V112.48C667.39,106,674.4,103,681.24,103c10.52,0,17,6.84,17,20.69v48.9h24.55V118.44C722.79,94.07,708.59,80.4,687.9,80.4Z"/><path class="cls-1" d="M809,88.46a38.66,38.66,0,0,0-24.19-8.06c-24.54,0-44.53,19.63-44.53,47.15,0,27.35,20,47.16,44.53,47.16A38.67,38.67,0,0,0,809,166.64v6h24.54V43.24H809Zm0,54.34a26.41,26.41,0,0,1-20.33,9.29c-13.5,0-23.49-9.64-23.49-24.54S775.2,103,788.7,103A26.81,26.81,0,0,1,809,112.13Z"/><path class="cls-1" d="M881.77,91.44V82.5H857.23v90.1h24.54V116a28.54,28.54,0,0,1,24-12.44,79.3,79.3,0,0,1,8.06.7l1-22.62a36.87,36.87,0,0,0-9.29-1.22A31,31,0,0,0,881.77,91.44Z"/><path class="cls-1" d="M971.7,80.4c-28.75,0-48.73,20-48.73,47.85,0,27.35,19.11,46.46,48.91,46.46,17.52,0,31.9-6.49,42.07-19.29l-17.18-13c-7.19,8.24-15.25,11.4-24.54,11.4-13.85,0-22.79-6.84-24.9-20h68.89a71.51,71.51,0,0,0,.53-8.76C1016.75,97.4,998,80.4,971.7,80.4Zm-23.31,36.11c3.33-10.34,11.39-15.78,23-15.78,11,0,18.58,5.09,20.86,15.78Z"/><path class="cls-1" d="M1099,88.46a38.64,38.64,0,0,0-24.19-8.06c-24.54,0-44.52,19.63-44.52,47.15,0,27.35,20,47.16,44.52,47.16a38.65,38.65,0,0,0,24.19-8.07v6h24.54V43.24H1099Zm0,54.34a26.4,26.4,0,0,1-20.33,9.29c-13.5,0-23.49-9.64-23.49-24.54s10-24.54,23.49-24.54a26.8,26.8,0,0,1,20.33,9.12Z"/><path class="cls-1" d="M1210.8,43.24V88.46a38.66,38.66,0,0,0-24.19-8.06c-24.54,0-44.53,19.63-44.53,47.15,0,27.35,20,47.16,44.53,47.16a38.67,38.67,0,0,0,24.19-8.07v6h24.54V43.24Zm0,99.56a26.43,26.43,0,0,1-20.34,9.29c-13.49,0-23.48-9.64-23.48-24.54S1177,103,1190.46,103a26.83,26.83,0,0,1,20.34,9.12Z"/><polygon class="cls-1" points="572.74 49.9 540.48 49.9 487.72 105.64 487.72 49.9 461.95 49.9 461.95 172.6 487.72 172.6 487.72 140.52 503.14 124.05 542.24 172.6 574.84 172.6 521.02 105.11 572.74 49.9"/><polygon class="cls-1" points="547.16 260.58 478.8 260.58 478.8 208.69 462.67 208.69 462.67 331.4 478.8 331.4 478.8 275.3 547.16 275.3 547.16 331.4 563.29 331.4 563.29 208.69 547.16 208.69 547.16 260.58"/><path class="cls-1" d="M635.16,240.25C608,240.25,588,259.88,588,287.57c0,27.17,19.11,45.93,47,45.93,17.88,0,32.26-7.54,40.85-20.33l-11.05-8.42c-7.53,10.17-17.35,15.08-29.45,15.08-17.88,0-30.32-10.69-31.55-29.45h74.33a38.08,38.08,0,0,0,.52-6.66C678.63,257.6,660.58,240.25,635.16,240.25Zm-30.5,36.81c3.5-14.9,14.9-23.49,30.5-23.49,15.25,0,25.42,8.06,27.7,23.49Z"/><path class="cls-1" d="M768.38,250.76c-6.83-6.83-17.35-10.51-28.22-10.51-24.72,0-45,19.63-45,46.62s20.33,46.63,45,46.63c10.87,0,21.39-3.68,28.22-10.52v8.42h15.43v-89H768.38Zm0,56.27a33.54,33.54,0,0,1-26.47,12.45c-17,0-31-12.62-31-32.61s14-32.6,31-32.6a33.56,33.56,0,0,1,26.47,12.44Z"/><rect class="cls-1" x="811.85" y="202.03" width="15.43" height="129.37"/><path class="cls-1" d="M895.82,319.13c-11.4,0-16.83-6.14-16.83-20.51v-43h31.38V242.35H879V220.26H863.56v22.09H843.4v13.32h20.16V300.2c0,22.61,10.52,32.95,30.5,32.95a47.75,47.75,0,0,0,19.81-4l-3.15-12.8A43.63,43.63,0,0,1,895.82,319.13Z"/><path class="cls-1" d="M976.8,240.25c-11,0-21.74,3.85-29.1,10.86V202H932.28V331.4H947.7V266.71a33.73,33.73,0,0,1,25.94-12.44c14,0,22.79,9.29,22.79,27.34V331.4h15.43V278.28C1011.86,254.09,997.48,240.25,976.8,240.25Z"/><path class="cls-2" d="M375.33,259.85H303.15A72.25,72.25,0,0,1,231,187.67V72.18a43.36,43.36,0,0,0-43.31-43.31H144.36V72.18a43.36,43.36,0,0,0,43.31,43.31H202.1a14.44,14.44,0,1,1,0,28.87H187.67a72.26,72.26,0,0,1-72.18-72.18V0h72.18a72.26,72.26,0,0,1,72.18,72.18V187.67A43.35,43.35,0,0,0,303.15,231h43.31V187.67a43.35,43.35,0,0,0-43.31-43.31H288.72a14.44,14.44,0,1,1,0-28.87h14.43a72.26,72.26,0,0,1,72.18,72.18Z"/><path class="cls-3" d="M259.85,375.33H187.67a72.26,72.26,0,0,1-72.18-72.18V187.67a43.36,43.36,0,0,0-43.31-43.31H28.87v43.31A43.36,43.36,0,0,0,72.18,231H86.62a14.44,14.44,0,0,1,0,28.87H72.18A72.26,72.26,0,0,1,0,187.67V115.49H72.18a72.26,72.26,0,0,1,72.18,72.18V303.15a43.35,43.35,0,0,0,43.31,43.31H231V303.15a43.35,43.35,0,0,0-43.31-43.3H173.23a14.44,14.44,0,0,1,0-28.87h14.44a72.25,72.25,0,0,1,72.18,72.17Z"/></svg>